<?xml version="1
.0" encoding="utf-8"?>
<!-- Generator: Adobe Illustrator 24
.0
.2, SVG Export Plug-In 
. SVG Version: 6
.00 Build 0)  -->
<svg version="1
.1" xmlns="http://www
.w3
.org/2000/svg" xmlns:xlink="http://www
.w3
.org/1999/xlink" x="0px" y="0px"
	 viewBox="0 0 320
.38 90
.2" style="enable-background:new 0 0 320
.38 90
.2;" xml:space="preserve">
<style type="text/css">
	
.st0{fill:#C7C7C7;}
	
.st1{fill:url(#SVGID_1_);}
	
.st2{fill:url(#SVGID_2_);}
	
.st3{fill:#FFFFFF;}
</style>
<g id="레이어_1">
</g>
<g id="레이어_2">
	<polygon class="st0" points="190
.86,90
.2 192
.91,68
.79 197
.8,68
.79 	"/>
	<linearGradient id="SVGID_1_" gradientUnits="userSpaceOnUse" x1="189
.2346" y1="55
.2674" x2="317
.886" y2="56
.1703">
		<stop  offset="0" style="stop-color:#007DC8"/>
		<stop  offset="0" style="stop-color:#0066C5"/>
		<stop  offset="1" style="stop-color:#002E8E"/>
	</linearGradient>
	<polygon class="st1" points="212
.64,21
.27 190
.86,90
.2 298
.83,90
.2 320
.38,21
.27 	"/>
	<linearGradient id="SVGID_2_" gradientUnits="userSpaceOnUse" x1="10
.8005" y1="34
.7192" x2="217
.073" y2="34
.193">
		<stop  offset="0" style="stop-color:#8AC452"/>
		<stop  offset="0
.5" style="stop-color:#00AA7D"/>
		<stop  offset="1" style="stop-color:#0096D5"/>
	</linearGradient>
	<polygon class="st2" points="197
.57,68
.93 0,68
.93 22,0 219
.37,0 	"/>
	<g>
		<g>
			<path class="st3" d="M-814
.83-162
.9h19
.69v60
.58l33
.55-2
.42v16
.46l-53
.24,3
.58V-162
.9z M-759
.35-165
.14h19
.69v30
.15h11
.1v17
.09
				h-11
.1v35
.88h-19
.69V-165
.14z"/>
			<path class="st3" d="M-727
.15-99
.46l58
.97-3
.58v16
.11l-58
.97,3
.58V-99
.46z M-724
.46-142
.5c0-15
.03,11
.36-22
.64,25
.23-22
.64
				c13
.96,0,25
.32,7
.61,25
.32,22
.64v8
.5c0,14
.94-11
.36,22
.19-25
.32,22
.19c-13
.87,0-25
.23-7
.25-25
.23-22
.19V-142
.5z M-705
.85-133
.11
				c0,4
.21,2
.95,6
.71,6
.62,6
.71c3
.85,0,6
.89-2
.51,6
.89-6
.71v-10
.47c0-4
.21-3
.04-6
.98-6
.89-6
.98c-3
.67,0-6
.62,2
.77-6
.62,6
.98V-133
.11
				z M-665
.94-165
.14h20
.13v83
.13h-20
.13V-165
.14z"/>
			<path class="st3" d="M-609
.49-162
.46h40
.35v11
.63c0,45
.37-17
.27,62
.19-40
.8,67
.02v-16
.73c20
.76-6
.44,23
.71-28
.99,23
.71-45
.81
				h-23
.26V-162
.46z M-564
.58-165
.14h15
.66v30
.51h4
.38v-30
.51h16
.02v83
.13h-16
.02v-36
.42h-4
.38v36
.42h-15
.66V-165
.14z"/>
			<path class="st3" d="M-520
.47-160
.49h14
.76v-6
.44h19
.24v6
.44h14
.76v12
.97h-48
.77V-160
.49z M-507
.23-116
.55
				c-6
.8,0-12
.35-6
.44-12
.35-14
.05c0-7
.87,5
.55-14
.23,12
.35-14
.23h22
.19c6
.8,0,12
.35,6
.35,12
.35,14
.23
				c0,7
.61-5
.55,14
.05-12
.35,14
.05H-507
.23z M-516
.62-111
.81h76
.68v30
.69h-20
.58v-16
.82h-56
.1V-111
.81z M-501
.95-128
.19h11
.99
				c1
.25,0,2
.15-1
.25,2
.15-2
.42c0-1
.34-0
.9-2
.59-2
.15-2
.59h-11
.99c-1
.25,0-2
.15,1
.25-2
.15,2
.59
				C-504
.1-129
.44-503
.2-128
.19-501
.95-128
.19z M-469
.47-155
.66h9
.84v-9
.48h19
.68v51
.09h-19
.68V-123h-9
.84v-13
.51h9
.84v-5
.64h-9
.84
				V-155
.66z"/>
			<path class="st3" d="M-382
.5-103
.67h-14
.58l-5
.01,22
.1h-19
.77l5
.01-22
.1h-15
.03v-16
.11h82
.32v16
.11h-13
.6v22
.1h-19
.33V-103
.67z
				 M-429
.66-144
.92c0-10
.65,8
.68-19
.33,19
.33-19
.33h39
.19c10
.65,0,19
.33,8
.68,19
.33,19
.33c0,10
.65-8
.68,19
.33-19
.33,19
.33h-39
.19
				C-420
.98-125
.59-429
.66-134
.27-429
.66-144
.92z M-375
.16-140
.62c2
.42,0,4
.21-1
.79,4
.21-4
.21s-1
.79-4
.21-4
.21-4
.21h-31
.14
				c-2
.42,0-4
.12,1
.97-4
.12,4
.21c0,2
.42,1
.7,4
.21,4
.12,4
.21H-375
.16z"/>
			<path class="st3" d="M-341
.53-160
.49h14
.76v-6
.44h19
.24v6
.44h14
.76v12
.08h-48
.77V-160
.49z M-327
.75-117
.36
				c-6
.89,0-12
.88-6
.53-12
.88-14
.23c0-7
.79,6-14
.32,12
.88-14
.32h21
.39c6
.89,0,12
.88,6
.53,12
.88,14
.32c0,7
.69-6,14
.23-12
.88,14
.23
				H-327
.75z M-320
.86-113
.15h43
.67c9
.75,0,17
.09,6
.53,17
.09,15
.84c0,8
.95-7
.34,15
.75-17
.09,15
.75h-43
.67
				c-9
.66,0-16
.91-6
.8-16
.91-15
.75C-337
.77-106
.62-330
.52-113
.15-320
.86-113
.15z M-322
.74-129
.17h11
.72c1
.43,0,2
.24-1
.25,2
.24-2
.42
				c0-1
.34-0
.81-2
.51-2
.24-2
.51h-11
.72c-1
.43,0-2
.24,1
.16-2
.24,2
.51C-324
.97-130
.42-324
.17-129
.17-322
.74-129
.17z M-283
.55-94
.63
				c2
.51,0,3
.76-0
.98,3
.76-2
.77c0-1
.79-1
.25-2
.77-3
.76-2
.77h-31
.05c-2
.15,0-3
.4,0
.98-3
.4,2
.77c0,1
.79,1
.25,2
.77,3
.4,2
.77H-283
.55z
				 M-290
.61-156
.1h9
.93v-9
.04H-261v50
.2h-19
.69V-123h-9
.93v-13
.51h9
.93v-6
.08h-9
.93V-156
.1z"/>
		</g>
		<g>
			<path class="st3" d="M-711
.94-37
.91c0-13
.15,10
.74-20
.04,23
.89-20
.04c13
.15,0,23
.89,6
.89,23
.89,20
.04v3
.94
				c0,13
.15-10
.74,19
.86-23
.89,19
.86c-13
.15,0-23
.89-6
.71-23
.89-19
.86V-37
.91z M-708
.18-10
.71h73
.19v22
.28h-53
.51v3
.22h55
.3v10
.38
				h-74
.98V2
.27h53
.51v-3
.04h-53
.51V-10
.71z M-693
.95-32
.18c0,3
.49,2
.59,5
.64,6
.08,5
.64s6
.17-2
.15,6
.17-5
.64v-7
.61
				c0-3
.49-2
.68-5
.73-6
.17-5
.73s-6
.08,2
.24-6
.08,5
.73V-32
.18z M-654
.67-57
.95h19
.69v13
.24h9
.31v15
.3h-9
.31v16
.46h-19
.69V-57
.95z"/>
			<path class="st3" d="M-622
.47-34
.51c0-13
.15,10
.74-22
.1,23
.89-22
.1c13
.24,0,23
.98,8
.95,23
.98,22
.1V1
.73
				c0,13
.15-10
.74,22
.1-23
.98,22
.1c-13
.15,0-23
.89-8
.95-23
.89-22
.1V-34
.51z M-604
.48,2
.8c0,3
.13,2
.51,5
.91,6
.08,5
.91
				s6
.17-2
.77,6
.17-5
.91v-38
.39c0-2
.95-2
.59-6-6
.17-6s-6
.08,3
.04-6
.08,6V2
.8z M-565
.2-57
.95h19
.69v30
.15h9
.31v17
.09h-9
.31v35
.88
				h-19
.69V-57
.95z"/>
			<path class="st3" d="M-534
.78,7
.72h31
.23V-5
.34h19
.86V7
.72h31
.23v16
.11h-82
.32V7
.72z M-531
.65-57
.06h19
.77v9
.93h36
.6v-9
.93h19
.69
				v48
.94h-76
.06V-57
.06z M-511
.88-22
.88h36
.6v-10
.38h-36
.6V-22
.88z"/>
			<path class="st3" d="M-443
.97-55
.27h52
.79v13
.42c0,39
.1-22
.19,60
.22-53
.24,65
.23V6
.29c20
.94-5
.28,34
.63-19
.69,34
.63-45
.46h-34
.18
				V-55
.27z M-384
.11-57
.95h20
.13v83
.13h-20
.13V-57
.95z"/>
		</g>
		<g>
			<path class="st3" d="M-813
.36,91
.04V60
.98h13
.94v1
.67h-12
.07v12h11
.73v1
.67h-11
.73v14
.71H-813
.36z"/>
			<path class="st3" d="M-795
.98,64
.46v-3
.48h1
.87v3
.48H-795
.98z M-795
.98,91
.04V67h1
.87v24
.04H-795
.98z"/>
			<path class="st3" d="M-788
.7,91
.04V67h1
.87v2
.37l7
.35-2
.21c3
.31-0
.97,5
.15,0
.2,5
.15,3
.24v20
.63h-1
.87V71
.08
				c0-2
.11-1
.14-2
.88-3
.41-2
.17l-7
.22,2
.14v19
.99H-788
.7z"/>
			<path class="st3" d="M-756
.97,60
.98h1
.84v29
.96h-1
.84v-2
.27l-7
.49,2
.07c-3
.28,0
.9-5
.12-0
.23-5
.12-3
.21V72
.35
				c0-3
.64,1
.87-5
.35,5
.58-5
.35h7
.02V60
.98z M-767
.7,86
.89c0,2
.07,1
.17,2
.78,3
.38,2
.17l7
.35-2
.04V68
.61h-6
.29
				c-3
.28,0-4
.45,1
.14-4
.45,4
.31V86
.89z"/>
			<path class="st3" d="M-740
.26,72
.82c0-3
.91,3
.04-6
.15,7
.49-6
.15c4
.41,0,7
.52,2
.24,7
.52,6
.15v12
.67c0,3
.98-3
.11,6
.19-7
.52,6
.19
				c-4
.45,0-7
.49-2
.21-7
.49-6
.19V72
.82z M-738
.43,85
.29c0,2
.94,2
.01,4
.78,5
.65,4
.78c3
.61,0,5
.68-1
.84,5
.68-4
.78V73
.05
				c0-2
.98-2
.07-4
.78-5
.68-4
.78c-3
.64,0-5
.65,1
.8-5
.65,4
.78V85
.29z"/>
			<path class="st3" d="M-706
.4,67v23
.94h-1
.87v-2
.41l-7
.36,2
.21c-3
.31,1-5
.15-0
.17-5
.15-3
.21V67h1
.87v19
.86
				c0,2
.07,1
.14,2
.88,3
.41,2
.17l7
.22-2
.14V67H-706
.4z"/>
			<path class="st3" d="M-703
.1,68
.61V67h4
.35v-6
.02h1
.87V67h5
.28v1
.6h-5
.28v16
.42c0,3
.41,2
.07,4
.48,5
.28,4
.48v1
.6
				c-4
.11,0-7
.15-1
.34-7
.15-5
.75V68
.61H-703
.1z"/>
			<path class="st3" d="M-663
.99,91
.04h-1
.87v-2
.37l-7
.52,2
.17c-3
.18,0
.9-5
.15-0
.27-5
.15-3
.24v-4
.51c0-3
.58,1
.91-5
.38,5
.62-5
.38
				h7
.05v-4
.95c0-2
.71-1
.71-4
.51-5
.22-4
.51c-3
.51,0-5
.12,1
.8-5
.12,4
.48v1
.2h-1
.87v-1
.4c0-3
.71,2
.67-5
.88,6
.99-5
.88
				c4
.31,0,7
.09,2
.21,7
.09,5
.92V91
.04z M-676
.69,87
.09c0,2
.14,1
.27,2
.71,3
.41,2
.07l7
.42-2
.14V79
.3h-6
.39
				c-3
.28,0-4
.45,0
.94-4
.45,4
.15V87
.09z"/>
			<path class="st3" d="M-644
.47,85
.69c0,3
.64-1
.87,5
.35-5
.58,5
.35h-8
.86V60
.98h1
.87v8
.49l7
.42-2
.21c3
.24-0
.97,5
.15,0
.17,5
.15,3
.24
				V85
.69z M-646
.3,71
.21c0-2
.04-1
.14-2
.91-3
.44-2
.24l-7
.29,2
.14v18
.32h6
.25c3
.31,0,4
.48-1
.14,4
.48-4
.31V71
.21z"/>
			<path class="st3" d="M-639
.96,72
.82c0-3
.91,3
.04-6
.15,7
.49-6
.15c4
.41,0,7
.52,2
.24,7
.52,6
.15v12
.67c0,3
.98-3
.11,6
.19-7
.52,6
.19
				c-4
.45,0-7
.49-2
.21-7
.49-6
.19V72
.82z M-638
.12,85
.29c0,2
.94,2
.01,4
.78,5
.65,4
.78c3
.61,0,5
.68-1
.84,5
.68-4
.78V73
.05
				c0-2
.98-2
.07-4
.78-5
.68-4
.78c-3
.64,0-5
.65,1
.8-5
.65,4
.78V85
.29z"/>
			<path class="st3" d="M-606
.09,67v23
.94h-1
.87v-2
.41l-7
.36,2
.21c-3
.31,1-5
.15-0
.17-5
.15-3
.21V67h1
.87v19
.86
				c0,2
.07,1
.14,2
.88,3
.41,2
.17l7
.22-2
.14V67H-606
.09z"/>
			<path class="st3" d="M-602
.79,68
.61V67h4
.35v-6
.02h1
.87V67h5
.28v1
.6h-5
.28v16
.42c0,3
.41,2
.07,4
.48,5
.28,4
.48v1
.6
				c-4
.11,0-7
.15-1
.34-7
.15-5
.75V68
.61H-602
.79z"/>
			<path class="st3" d="M-577
.65,91
.04V67h1
.87v2
.34l5
.02-2
.01c2
.77-1
.1,4
.65-0
.13,4
.98,2
.21l5
.22-2
.21
				c3
.18-1
.34,5
.05,0
.17,5
.05,3
.24v20
.46h-1
.84V71
.28c0-2
.11-1
.17-3
.08-3
.28-2
.17l-5
.02,2
.11v19
.83h-1
.84V71
.28
				c0-2
.14-1
.17-3
.04-3
.34-2
.21l-4
.95,1
.97v19
.99H-577
.65z"/>
			<path class="st3" d="M-550
.45,67h1
.87v16
.48c0,2
.07,1
.24,2
.81,3
.41,2
.17l7
.39-2
.14V67h1
.87v23
.57c0,3
.24-2
.71,5
.58-7
.22,5
.58
				c-4
.51,0-7
.22-2
.31-7
.22-5
.55v-0
.77h1
.91v0
.6c0,2
.21,1
.67,4
.11,5
.32,4
.11c3
.68,0,5
.35-1
.94,5
.35-4
.15v-5
.22l-7
.52,2
.17
				c-3
.28,0
.9-5
.15-0
.23-5
.15-3
.21V67z"/>
			<path class="st3" d="M-510
.33,68
.51c-1
.44,0-2
.77,0
.87-4
.61,2
.01l-3
.64,2
.24v18
.29h-1
.87V67h1
.87v3
.78l3
.28-2
.01
				c1
.94-1
.2,3
.28-2
.11,4
.98-2
.11V68
.51z"/>
			<path class="st3" d="M-495
.09,83
.82h1
.84v1
.57c0,4
.04-3
.11,6
.29-7
.42,6
.29c-4
.38,0-7
.49-2
.24-7
.49-6
.29V72
.95
				c0-4
.05,3
.08-6
.29,7
.46-6
.29c4
.35,0,7
.46,2
.24,7
.46,6
.29v6
.35h-13
.07v5
.92c0,3
.01,2
.11,4
.85,5
.62,4
.85s5
.62-1
.84,5
.62-4
.85V83
.82
				z M-506
.33,77
.7h11
.23v-4
.61c0-2
.98-2
.14-4
.81-5
.62-4
.81c-3
.51,0-5
.62,1
.84-5
.62,4
.81V77
.7z"/>
			<path class="st3" d="M-491
.02,68
.81V67
.2h4
.21V66c0-3
.64,3
.14-5
.01,6
.32-5
.01h0
.7v1
.6h-0
.57c-2
.44,0-4
.58,0
.87-4
.58,3
.91v0
.7
				h5
.15v1
.61h-5
.15v22
.23h-1
.87V68
.81H-491
.02z"/>
			<path class="st3" d="M-477
.78,72
.82c0-3
.91,3
.04-6
.15,7
.49-6
.15c4
.41,0,7
.52,2
.24,7
.52,6
.15v12
.67c0,3
.98-3
.11,6
.19-7
.52,6
.19
				c-4
.45,0-7
.49-2
.21-7
.49-6
.19V72
.82z M-475
.94,85
.29c0,2
.94,2
.01,4
.78,5
.65,4
.78c3
.61,0,5
.68-1
.84,5
.68-4
.78V73
.05
				c0-2
.98-2
.07-4
.78-5
.68-4
.78c-3
.64,0-5
.65,1
.8-5
.65,4
.78V85
.29z"/>
			<path class="st3" d="M-447
.83,68
.51c-1
.44,0-2
.77,0
.87-4
.61,2
.01l-3
.64,2
.24v18
.29h-1
.87V67h1
.87v3
.78l3
.28-2
.01
				c1
.94-1
.2,3
.28-2
.11,4
.98-2
.11V68
.51z"/>
			<path class="st3" d="M-444
.56,91
.04V67h1
.87v2
.34l5
.02-2
.01c2
.77-1
.1,4
.65-0
.13,4
.98,2
.21l5
.22-2
.21
				c3
.18-1
.34,5
.05,0
.17,5
.05,3
.24v20
.46h-1
.84V71
.28c0-2
.11-1
.17-3
.08-3
.28-2
.17l-5
.02,2
.11v19
.83h-1
.84V71
.28
				c0-2
.14-1
.17-3
.04-3
.34-2
.21l-4
.95,1
.97v19
.99H-444
.56z"/>
			<path class="st3" d="M-403
.38,91
.04h-1
.87v-2
.37l-7
.52,2
.17c-3
.18,0
.9-5
.15-0
.27-5
.15-3
.24v-4
.51c0-3
.58,1
.91-5
.38,5
.62-5
.38
				h7
.05v-4
.95c0-2
.71-1
.71-4
.51-5
.22-4
.51c-3
.51,0-5
.12,1
.8-5
.12,4
.48v1
.2h-1
.87v-1
.4c0-3
.71,2
.67-5
.88,6
.99-5
.88
				c4
.31,0,7
.09,2
.21,7
.09,5
.92V91
.04z M-416
.08,87
.09c0,2
.14,1
.27,2
.71,3
.41,2
.07l7
.42-2
.14V79
.3h-6
.39
				c-3
.28,0-4
.45,0
.94-4
.45,4
.15V87
.09z"/>
			<path class="st3" d="M-400
.4,68
.61V67h4
.35v-6
.02h1
.87V67h5
.28v1
.6h-5
.28v16
.42c0,3
.41,2
.07,4
.48,5
.28,4
.48v1
.6
				c-4
.11,0-7
.15-1
.34-7
.15-5
.75V68
.61H-400
.4z"/>
			<path class="st3" d="M-385
.3,64
.46v-3
.48h1
.87v3
.48H-385
.3z M-385
.3,91
.04V67h1
.87v24
.04H-385
.3z"/>
			<path class="st3" d="M-378
.61,72
.82c0-3
.91,3
.04-6
.15,7
.49-6
.15c4
.41,0,7
.52,2
.24,7
.52,6
.15v12
.67c0,3
.98-3
.11,6
.19-7
.52,6
.19
				c-4
.45,0-7
.49-2
.21-7
.49-6
.19V72
.82z M-376
.77,85
.29c0,2
.94,2
.01,4
.78,5
.65,4
.78c3
.61,0,5
.68-1
.84,5
.68-4
.78V73
.05
				c0-2
.98-2
.07-4
.78-5
.68-4
.78c-3
.64,0-5
.65,1
.8-5
.65,4
.78V85
.29z"/>
			<path class="st3" d="M-358
.79,91
.04V67h1
.87v2
.37l7
.36-2
.21c3
.31-0
.97,5
.15,0
.2,5
.15,3
.24v20
.63h-1
.87V71
.08
				c0-2
.11-1
.14-2
.88-3
.41-2
.17l-7
.22,2
.14v19
.99H-358
.79z"/>
			<path class="st3" d="M-331
.42,68
.61V67h4
.35v-6
.02h1
.87V67h5
.28v1
.6h-5
.28v16
.42c0,3
.41,2
.07,4
.48,5
.28,4
.48v1
.6
				c-4
.11,0-7
.15-1
.34-7
.15-5
.75V68
.61H-331
.42z"/>
			<path class="st3" d="M-316
.31,67h1
.87v16
.48c0,2
.07,1
.24,2
.81,3
.41,2
.17l7
.39-2
.14V67h1
.87v23
.57c0,3
.24-2
.71,5
.58-7
.22,5
.58
				c-4
.51,0-7
.22-2
.31-7
.22-5
.55v-0
.77h1
.91v0
.6c0,2
.21,1
.67,4
.11,5
.32,4
.11c3
.68,0,5
.35-1
.94,5
.35-4
.15v-5
.22l-7
.52,2
.17
				c-3
.28,0
.9-5
.15-0
.23-5
.15-3
.21V67z"/>
			<path class="st3" d="M-294
.48,67v2
.41l7
.42-2
.14c3
.24-0
.94,5
.15,0
.17,5
.15,3
.24v15
.18c0,3
.64-1
.87,5
.35-5
.58,5
.35h-6
.99v5
.15
				h-1
.87V67H-294
.48z M-283
.75,71
.21c0-2
.04-1
.14-2
.91-3
.44-2
.27l-7
.29,2
.14v18
.35h6
.25c3
.31,0,4
.48-1
.14,4
.48-4
.31V71
.21z"/>
			<path class="st3" d="M-264
.33,83
.82h1
.84v1
.57c0,4
.04-3
.11,6
.29-7
.42,6
.29c-4
.38,0-7
.49-2
.24-7
.49-6
.29V72
.95
				c0-4
.05,3
.08-6
.29,7
.46-6
.29c4
.35,0,7
.46,2
.24,7
.46,6
.29v6
.35h-13
.07v5
.92c0,3
.01,2
.11,4
.85,5
.62,4
.85s5
.62-1
.84,5
.62-4
.85V83
.82
				z M-275
.56,77
.7h11
.23v-4
.61c0-2
.98-2
.14-4
.81-5
.62-4
.81c-3
.51,0-5
.62,1
.84-5
.62,4
.81V77
.7z"/>
		</g>
	</g>
	<g>
		<g>
			<path class="st3" d="M18
.59,46
.02c11
.76-3
.34,16
.82-15
.01,19
.46-23
.72H26
.01l2
.53-8
.34h20
.89l-1
.82,6
.02
				c-7
.11,23
.49-18
.69,32
.2-31
.63,34
.7L18
.59,46
.02z M39
.17,55
.61l13
.03-43
.04h8
.11l-4
.78,15
.8h2
.27l4
.78-15
.8h8
.29L57
.84,55
.61
				h-8
.29l5
.71-18
.85h-2
.27l-5
.71,18
.85H39
.17z"/>
		</g>
		<g>
			<path class="st3" d="M64
.65,47
.37l2
.17-7
.18h39
.7l-4
.81,15
.89H91
.05l2
.64-8
.71H64
.65z M76
.86,23
.09h11
.49
				c3
.52,0,5
.4,3
.29,4
.16,7
.37c-1
.19,3
.94-5
.07,7
.27-8
.6,7
.27H72
.43c-3
.52,0-5
.38-3
.34-4
.19-7
.27
				C69
.47,26
.38,73
.34,23
.09,76
.86,23
.09z M70
.43,21
.7l2
.03-6
.72h7
.64l1
.01-3
.34h9
.96l-1
.01,3
.34h7
.64l-2
.03,6
.72H70
.43z
				 M83
.19,31
.71c0
.65,0,1
.31-0
.65,1
.49-1
.25c0
.21-0
.7-0
.06-1
.34-0
.7-1
.34h-6
.21c-0
.65,0-1
.31,0
.65-1
.52,1
.34
				c-0
.18,0
.6,0
.08,1
.25,0
.73,1
.25H83
.19z M92
.99,34
.39l2
.12-7h5
.1l0
.88-2
.92h-5
.1l2
.12-7h5
.1l1
.49-4
.91h10
.19l-8
.01,26
.45H96
.68
				l1
.4-4
.63H92
.99z"/>
		</g>
		<g>
			<path class="st3" d="M109
.28,55
.84l6
.06-11
.44h-7
.78l2
.53-8
.34h42
.62l-2
.53,8
.34h-7
.04l-3
.47,11
.44h-10
.01l3
.47-11
.44h-7
.55
				l-6
.06,11
.44H109
.28z M122
.16,33
.05c-5
.51,0-8
.65-4
.49-6
.98-10
.01c1
.67-5
.51,7
.52-10
.01,13
.04-10
.01h20
.29
				c5
.51,0,8
.64,4
.49,6
.97,10
.01c-1
.67,5
.51-7
.52,10
.01-13
.04,10
.01H122
.16z M142
.72,25
.27c1
.25,0,2
.46-0
.93,2
.84-2
.18
				c0
.38-1
.25-0
.27-2
.18-1
.52-2
.18h-16
.12c-1
.25,0-2
.44,1
.02-2
.79,2
.18c-0
.38,1
.25,0
.22,2
.18,1
.47,2
.18H142
.72z"/>
		</g>
		<g>
			<path class="st3" d="M164
.68,39
.49h22
.61c5
.05,0,7
.82,3
.38,6
.36,8
.2c-1
.4,4
.63-6
.27,8
.15-11
.32,8
.15h-22
.61
				c-5,0-7
.69-3
.52-6
.29-8
.15C154
.9,42
.87,159
.68,39
.49,164
.68,39
.49z M166
.25,22
.54h11
.07c3
.57,0,5
.65,3
.38,4
.43,7
.41
				c-1
.21,3
.98-5
.33,7
.37-8
.9,7
.37h-11
.07c-3
.57,0-5
.65-3
.38-4
.44-7
.37C158
.56,25
.92,162
.68,22
.54,166
.25,22
.54z M159
.51,21
.24
				l1
.89-6
.25h7
.64l1
.01-3
.34h9
.96l-1
.01,3
.34h7
.64l-1
.89,6
.25H159
.51z M181
.1,49
.08c1
.3,0,2
.1-0
.51,2
.38-1
.44
				c0
.28-0
.93-0
.21-1
.44-1
.51-1
.44h-16
.07c-1
.11,0-1
.91,0
.51-2
.2,1
.44c-0
.28,0
.93,0
.21,1
.44,1
.33,1
.44H181
.1z M172
.29,31
.2
				c0
.74,0,1
.35-0
.65,1
.54-1
.25c0
.21-0
.69-0
.02-1
.3-0
.76-1
.3h-6
.07c-0
.74,0-1
.34,0
.6-1
.55,1
.3c-0
.18,0
.6,0
.04,1
.25,0
.78,1
.25H172
.29
				z M181
.88,34
.39l2
.12-7h5
.14l0
.95-3
.15h-5
.14l2
.12-7h5
.14l1
.42-4
.68h10
.19l-7
.87,25
.99h-10
.19l1
.26-4
.17H181
.88z"/>
		</g>
	</g>
	<g>
		<g>
			<path class="st3" d="M219
.54,61
.87h23
.07c5
.1,0,7
.59,3
.38,6
.19,8
.01c-1
.39,4
.59-5
.93,7
.97-11
.03,7
.97H214
.7
				c-5,0-7
.5-3
.38-6
.11-7
.97C209
.99,65
.25,214
.54,61
.87,219
.54,61
.87z M209
.77,59
.55l2
.02-6
.67h2
.92l2
.13-9
.77h8
.57l-2
.31,9
.77h3
.1
				l3
.61-9
.77h8
.57l-3
.84,9
.77h2
.92l-2
.02,6
.67H209
.77z M215
.57,41
.95l2
.02-6
.67h24
.74l-2
.02,6
.67H215
.57z M236
.24,71
.27
				c1
.3,0,2
.1-0
.51,2
.38-1
.44c0
.28-0
.93-0
.21-1
.44-1
.51-1
.44h-16
.07c-1
.11,0-1
.91,0
.51-2
.2,1
.44c-0
.28,0
.93,0
.21,1
.44,1
.33,1
.44
				H236
.24z M237
.43,56
.17l2
.12-7h4
.86l0
.97-3
.2h-4
.86l2
.12-7h4
.86l1
.33-4
.4h10
.19l-7
.98,26
.36h-10
.19l1
.45-4
.77H237
.43z"/>
		</g>
		<g>
			<path class="st3" d="M251
.96,67
.84c11
.4-2
.78,18
.96-10
.15,22
.97-23
.53h-15
.61l2
.53-8
.34h25
.25l-2
.1,6
.95
				c-6
.12,20
.2-18
.81,31
.22-35
.71,33
.77L251
.96,67
.84z M277
.96,77
.62l13
.03-43
.04h10
.19l-4
.73,15
.61h5
.74l-2
.68,8
.85h-5
.74
				l-5
.63,18
.58H277
.96z"/>
		</g>
	</g>
</g>
</svg>
