<?xml version="1
.0" encoding="utf-8"?>
<!-- Generator: Adobe Illustrator 24
.0
.2, SVG Export Plug-In 
. SVG Version: 6
.00 Build 0)  -->
<svg version="1
.1" id="레이어_1" xmlns="http://www
.w3
.org/2000/svg" xmlns:xlink="http://www
.w3
.org/1999/xlink" x="0px"
	 y="0px" viewBox="0 0 400 195
.49" style="enable-background:new 0 0 400 195
.49;" xml:space="preserve">
<style type="text/css">
	
.st0{clip-path:url(#SVGID_2_);}
	
.st1{opacity:0
.9;clip-path:url(#SVGID_4_);}
	
.st2{clip-path:url(#SVGID_6_);fill:#FFFFFF;}
	
.st3{clip-path:url(#SVGID_8_);}
	
.st4{enable-background:new    ;}
	
.st5{fill:#525063;}
	
		
.st6{clip-path:url(#SVGID_10_);fill:none;stroke:#1A9DA1;stroke-width:2
.5;stroke-linecap:round;stroke-linejoin:round;stroke-miterlimit:10;}
</style>
<g>
	<g>
		<defs>
			<rect id="SVGID_1_" x="0
.14" width="400" height="195
.49"/>
		</defs>
		<clipPath id="SVGID_2_">
			<use xlink:href="#SVGID_1_"  style="overflow:visible;"/>
		</clipPath>
		<g class="st0">
			<g>
				<defs>
					<rect id="SVGID_3_" x="0
.14" width="400" height="195
.49"/>
				</defs>
				<clipPath id="SVGID_4_">
					<use xlink:href="#SVGID_3_"  style="overflow:visible;"/>
				</clipPath>
				<g class="st1">
					<g>
						<g>
							<defs>
								<rect id="SVGID_5_" x="-16
.86" y="-13" width="445
.2" height="209
.49"/>
							</defs>
							<clipPath id="SVGID_6_">
								<use xlink:href="#SVGID_5_"  style="overflow:visible;"/>
							</clipPath>
							<path class="st2" d="M14
.31,0C6
.48,0,0
.14,6
.35,0
.14,14
.17v167
.14c0,7
.83,6
.35,14
.17,14
.17,14
.17h371
.65
								c7
.83,0,14
.17-6
.35,14
.17-14
.17V14
.17c0-7
.83-6
.35-14
.17-14
.17-14
.17H14
.31z"/>
						</g>
						<g>
							<defs>
								<rect id="SVGID_7_" x="-16
.86" y="-13" width="445
.2" height="209
.49"/>
							</defs>
							<clipPath id="SVGID_8_">
								<use xlink:href="#SVGID_7_"  style="overflow:visible;"/>
							</clipPath>
							<g class="st3">
								<g class="st4">
									<path class="st5" d="M48
.62,143
.03c2
.75-0
.5,5
.74-2
.32,5
.74-5
.94v-0
.43h-5
.51v-1
.31h12
.38v1
.31h-5
.51v0
.43
										c0,3
.62,3
.02,5
.45,5
.74,5
.94v1
.42c-2
.88-0
.52-5
.85-2
.16-6
.41-4
.97c-0
.56,2
.81-3
.53,4
.46-6
.41,4
.97V143
.03z M50
.33,155
.09
										v-5
.04h15
.75v-2
.41H50
.33v-1
.31h17
.11v4
.97H51
.69v2
.48h16
.18v1
.3H50
.33z M66
.07,145
.17v-10
.49h1
.37v10
.49H66
.07z"/>
									<path class="st5" d="M80
.24,150
.77v-4
.64h-9
.52v-1
.33h20
.35v1
.33h-9
.48v4
.64H80
.24z M72
.32,142
.42v-7
.38h17
.15v7
.38H72
.32z
										 M72
.32,155
.09v-6
.73h1
.35v5
.42h16
.14v1
.3H72
.32z M73
.67,141
.12h14
.45v-4
.77H73
.67V141
.12z"/>
									<path class="st5" d="M107
.06,143
.52v-8
.84h1
.35v20
.41h-1
.35v-10
.26h-3
.96v5
.11c0,2
.66-1
.98,4
.48-4
.52,4
.48
										c-2
.54,0-4
.55-1
.82-4
.55-4
.48v-10
.62c0-2
.66,2-4
.48,4
.55-4
.48c2
.54,0,4
.52,1
.82,4
.52,4
.48v4
.21H107
.06z M101
.75,139
.31
										c0-1
.87-1
.4-3
.15-3
.17-3
.15c-1
.8,0-3
.2,1
.28-3
.2,3
.15v10
.62c0,1
.89,1
.4,3
.15,3
.2,3
.15c1
.78,0,3
.17-1
.26,3
.17-3
.15V139
.31z
										 M111
.5,134
.68h1
.35v20
.41h-1
.35V134
.68z"/>
									<path class="st5" d="M122
.87,144
.49c2
.7-0
.52,5
.67-2
.48,5
.67-6
.32v-1
.51h-5
.45v-1
.31h12
.24v1
.31h-5
.45v1
.51
										c0,3
.85,2
.97,5
.81,5
.67,6
.32v1
.44c-2
.86-0
.56-5
.81-2
.25-6
.35-5
.18c-0
.54,2
.93-3
.49,4
.61-6
.35,5
.18V144
.49z M128
.75,147
.53
										h9
.16c2
.45,0,4
.39,1
.55,4
.39,3
.83c0,2
.29-1
.94,3
.85-4
.39,3
.85h-9
.16c-2
.45,0-4
.39-1
.55-4
.39-3
.85
										C124
.36,149
.08,126
.29,147
.53,128
.75,147
.53z M137
.84,153
.9c1
.73,0,3
.11-1
.01,3
.11-2
.54c0-1
.51-1
.37-2
.5-3
.11-2
.5h-9
.03
										c-1
.73,0-3
.11,0
.99-3
.11,2
.5c0,1
.53,1
.37,2
.54,3
.11,2
.54H137
.84z M135
.14,141
.03v-1
.31h5
.2v-5
.04h1
.35v12
.06h-1
.35v-5
.72
										H135
.14z"/>
									<path class="st5" d="M145
.37,144
.36c2
.75-0
.52,5
.74-2
.48,5
.74-6
.32v-1
.37h-5
.51v-1
.31h12
.38v1
.31h-5
.51v1
.37
										c0,3
.85,3
.02,5
.81,5
.74,6
.32v1
.44c-2
.88-0
.54-5
.85-2
.25-6
.41-5
.18c-0
.56,2
.93-3
.53,4
.64-6
.41,5
.18V144
.36z M146
.86,149
.4
										v-1
.31h17
.33v7
.22h-1
.35v-5
.92H146
.86z M162
.84,146
.92v-12
.24h1
.35v12
.24H162
.84z"/>
									<path class="st5" d="M167
.87,139
.22v-1
.3h5
.33v-3
.58h1
.35v3
.58h5
.33v1
.3H167
.87z M168
.28,149
.44v-3
.22
										c0-3
.08,2
.45-4
.97,5
.6-4
.97c3
.17,0,5
.6,1
.89,5
.6,4
.97v3
.22c0,3
.08-2
.43,4
.97-5
.6,4
.97
										C170
.73,154
.42,168
.28,152
.53,168
.28,149
.44z M178
.14,149
.35v-3
.04c0-2
.39-1
.91-3
.74-4
.25-3
.74s-4
.25,1
.35-4
.25,3
.74v3
.04
										c0,2
.39,1
.91,3
.74,4
.25,3
.74S178
.14,151
.74,178
.14,149
.35z M184
.48,155
.09v-20
.41h1
.35v8
.78h3
.24v1
.31h-3
.24v10
.33H184
.48z
										"/>
									<path class="st5" d="M203
.5,143
.52v-8
.84h1
.35v20
.41h-1
.35v-10
.26h-4
.79c-1
.35,5
.4-4
.21,8
.3-8
.15,9
.48v-1
.4
										c5
.27-1
.78,7
.7-7
.11,7
.65-15
.91h-7
.54v-1
.31h8
.89v1
.04c0,2
.59-0
.2,4
.84-0
.56,6
.8H203
.5z M208
.24,134
.68h1
.35v20
.41h-1
.35
										V134
.68z"/>
									<path class="st5" d="M220
.39,144
.49v-9
.32h10
.08v1
.33h-8
.73v6
.57l10
.33-0
.58v1
.33L220
.39,144
.49z M221
.33,155
.09v-8
.78
										h1
.35v2
.72h13
.37v-2
.72h1
.35v8
.78h-1
.35v-0
.67L221
.33,155
.09z M222
.68,153
.7l13
.37-0
.58v-2
.75h-13
.37V153
.7z
										 M236
.05,145
.28v-10
.6h1
.35v4
.43h3
.42v1
.31h-3
.42v4
.86H236
.05z"/>
									<path class="st5" d="M253
.67,143
.64v2
.43h-10
.96v-11
.01h1
.35v3
.89h8
.26v-3
.89h1
.35v2
.66h6
.1v-3
.04h1
.35v15
.17h-1
.35v-6
.21
										H253
.67z M245
.18,153
.79h16
.36v1
.3h-17
.71v-7h1
.35V153
.79z M252
.32,144
.76v-4
.5h-8
.26v4
.5H252
.32z M259
.77,139
.02h-6
.1
										v3
.31h6
.1V139
.02z"/>
									<path class="st5" d="M264
.62,139
.22v-1
.3h5
.33v-3
.58h1
.35v3
.58h5
.33v1
.3H264
.62z M265
.03,149
.44v-3
.22
										c0-3
.08,2
.45-4
.97,5
.6-4
.97c3
.17,0,5
.6,1
.89,5
.6,4
.97v3
.22c0,3
.08-2
.43,4
.97-5
.6,4
.97
										C267
.48,154
.42,265
.03,152
.53,265
.03,149
.44z M274
.89,149
.35v-3
.04c0-2
.39-1
.91-3
.74-4
.25-3
.74s-4
.25,1
.35-4
.25,3
.74v3
.04
										c0,2
.39,1
.91,3
.74,4
.25,3
.74S274
.89,151
.74,274
.89,149
.35z M281
.23,155
.09v-20
.41h1
.35v8
.78h3
.24v1
.31h-3
.24v10
.33H281
.23z
										"/>
									<path class="st5" d="M287
.12,143
.46c2
.59-0
.88,5
.74-3
.22,5
.74-6
.3v-2
.21h1
.35v2
.21c0,3
.08,3
.15,5
.42,5
.74,6
.3v1
.44
										c-2
.68-0
.79-5
.81-2
.93-6
.42-5
.4c-0
.61,2
.48-3
.76,4
.61-6
.41,5
.4V143
.46z M288
.83,155
.09v-8
.55h1
.35v2
.61h14
.4v-2
.61h1
.35
										v8
.55h-1
.35v-0
.7L288
.83,155
.09z M290
.18,153
.7l14
.4-0
.63v-2
.59h-14
.4V153
.7z M304
.59,145
.48v-10
.8h1
.35v10
.8H304
.59z"/>
									<path class="st5" d="M309
.4,152
.32c2
.43-1
.4,6
.42-5
.18,6
.42-10
.2v-6
.84h1
.35v6
.84c0,5
.02,3
.98,8
.8,6
.41,10
.2v1
.67
										c-2
.81-1
.42-6
.35-4
.95-7
.09-8
.58c-0
.74,3
.62-4
.28,7
.16-7
.09,8
.58V152
.32z M327
.07,155
.09v-20
.41h1
.35v20
.41H327
.07z"/>
									<path class="st5" d="M331
.72,154
.42v-1
.33h9
.5v-5
.58h1
.35v5
.58h9
.5v1
.33H331
.72z M338
.47,146
.45
										c-3
.31,0-5
.65-2
.43-5
.65-5
.63c0-3
.22,2
.34-5
.67,5
.65-5
.67h6
.84c3
.31,0,5
.65,2
.45,5
.65,5
.67c0,3
.2-2
.34,5
.63-5
.65,5
.63
										H338
.47z M345
.2,145
.14c2
.54,0,4
.41-1
.78,4
.41-4
.32c0-2
.57-1
.87-4
.34-4
.41-4
.34h-6
.59c-2
.54,0-4
.43,1
.78-4
.43,4
.34
										c0,2
.54,1
.89,4
.32,4
.43,4
.32H345
.2z"/>
								</g>
							</g>
						</g>
						<g>
							<defs>
								<rect id="SVGID_9_" x="-16
.86" y="-13" width="445
.2" height="209
.49"/>
							</defs>
							<clipPath id="SVGID_10_">
								<use xlink:href="#SVGID_9_"  style="overflow:visible;"/>
							</clipPath>
							<path class="st6" d="M172
.13,59
.32c0
.32-4
.19,2
.52-8
.01,5
.04-10
.3 M195
.2,102
.02c-20
.36-14
.08-29
.43-27
.4-29
.43-40
.32
								c0-11
.49,7
.01-21
.32,17
.19-21
.32c11
.49,0,17
.19,10
.06,17
.19,10
.06s5
.69-10
.06,17
.19-10
.06c10
.17,0,17
.19,9
.83,17
.19,21
.32
								c0,7
.82-3
.32,15
.79-10
.46,23
.98 M215
.82,79
.8V66
.63 M210
.25,79
.8V62
.39 M199
.07,88
.27V73
.43 M204
.68,79
.8V62
.39
								 M198
.27,107
.22c0,0,0
.42-6
.56-1
.61-9
.03c-2
.84-3
.46-3
.15-4
.86-3
.15-10
.7v-8
.96c0-1
.38,1
.25-2
.5,2
.79-2
.5
								c0
.77,0,1
.47,0
.28,1
.97,0
.73c0
.5,0
.46,0
.82,1
.08,0
.82,1
.77V62
.29c0-1
.54,1
.25-2
.79,2
.79-2
.79c0
.77,0,1
.47,0
.31,1
.97,0
.82
								s0
.82,1
.21,0
.82,1
.97v-3
.8c0-1
.54,1
.25-2
.79,2
.79-2
.79c0
.77,0,1
.47,0
.31,1
.97,0
.82s0
.82,1
.2,0
.82,1
.97v3
.8
								c0-1
.54,1
.25-2
.79,2
.79-2
.79l0,0c1
.54,0,2
.79,1
.25,2
.79,2
.79v4
.34c0-1
.54,1
.25-2
.79,2
.79-2
.79c0
.77,0,1
.47,0
.31,1
.97,0
.82
								s0
.82,1
.21,0
.82,1
.97c0,0,0
.59,16
.82,0,23
.61c-0
.57,6
.57-3
.26,9
.13-3
.26,12
.12v4
.87"/>
						</g>
					</g>
				</g>
			</g>
		</g>
	</g>
</g>
</svg>
