<?xml version="1
.0" encoding="utf-8"?>
<!-- Generator: Adobe Illustrator 24
.0
.2, SVG Export Plug-In 
. SVG Version: 6
.00 Build 0)  -->
<svg version="1
.1" id="레이어_1" xmlns="http://www
.w3
.org/2000/svg" xmlns:xlink="http://www
.w3
.org/1999/xlink" x="0px"
	 y="0px" viewBox="0 0 554
.72 263
.12" style="enable-background:new 0 0 554
.72 263
.12;" xml:space="preserve">
<style type="text/css">
	
.st0{fill:#FFFFFF;}
</style>
<g>
	<g>
		<path class="st0" d="M0,4
.03h19
.69V64
.6l33
.55-2
.42v16
.46L0,82
.23V4
.03z M55
.48,1
.79h19
.69v30
.15h11
.1v17
.09h-11
.1v35
.88H55
.48
			V1
.79z"/>
		<path class="st0" d="M87
.68,67
.47l58
.97-3
.58v16
.11l-58
.97,3
.58V67
.47z M90
.37,24
.43c0-15
.03,11
.36-22
.64,25
.23-22
.64
			c13
.96,0,25
.32,7
.61,25
.32,22
.64v8
.5c0,14
.94-11
.36,22
.19-25
.32,22
.19c-13
.87,0-25
.23-7
.25-25
.23-22
.19V24
.43z M108
.98,33
.82
			c0,4
.21,2
.95,6
.71,6
.62,6
.71c3
.85,0,6
.89-2
.51,6
.89-6
.71V23
.35c0-4
.21-3
.04-6
.98-6
.89-6
.98c-3
.67,0-6
.62,2
.77-6
.62,6
.98V33
.82z
			 M148
.88,1
.79h20
.13v83
.13h-20
.13V1
.79z"/>
		<path class="st0" d="M205
.33,4
.47h40
.35v11
.63c0,45
.37-17
.27,62
.19-40
.8,67
.02V66
.39c20
.76-6
.44,23
.71-28
.99,23
.71-45
.81h-23
.26
			V4
.47z M250
.25,1
.79h15
.66V32
.3h4
.38V1
.79h16
.02v83
.13H270
.3V48
.5h-4
.38v36
.42h-15
.66V1
.79z"/>
		<path class="st0" d="M294
.36,6
.44h14
.76V0h19
.24v6
.44h14
.76v12
.97h-48
.77V6
.44z M307
.6,50
.38c-6
.8,0-12
.35-6
.44-12
.35-14
.05
			c0-7
.87,5
.55-14
.23,12
.35-14
.23h22
.19c6
.8,0,12
.35,6
.35,12
.35,14
.23c0,7
.61-5
.55,14
.05-12
.35,14
.05H307
.6z M298
.21,55
.12h76
.68
			v30
.69h-20
.58V68
.99h-56
.1V55
.12z M312
.88,38
.74h11
.99c1
.25,0,2
.15-1
.25,2
.15-2
.42c0-1
.34-0
.89-2
.59-2
.15-2
.59h-11
.99
			c-1
.25,0-2
.15,1
.25-2
.15,2
.59C310
.73,37
.49,311
.63,38
.74,312
.88,38
.74z M345
.36,11
.27h9
.84V1
.79h19
.68v51
.09H355
.2v-8
.95h-9
.84
			V30
.42h9
.84v-5
.64h-9
.84V11
.27z"/>
		<path class="st0" d="M432
.33,63
.26h-14
.58l-5
.01,22
.1h-19
.77l5
.01-22
.1h-15
.03V47
.15h82
.32v16
.11h-13
.6v22
.1h-19
.33V63
.26z
			 M385
.17,22
.01c0-10
.65,8
.68-19
.33,19
.33-19
.33h39
.19c10
.65,0,19
.33,8
.68,19
.33,19
.33c0,10
.65-8
.68,19
.33-19
.33,19
.33H404
.5
			C393
.85,41
.34,385
.17,32
.66,385
.17,22
.01z M439
.66,26
.31c2
.42,0,4
.21-1
.79,4
.21-4
.21s-1
.79-4
.21-4
.21-4
.21h-31
.14
			c-2
.42,0-4
.12,1
.97-4
.12,4
.21c0,2
.42,1
.7,4
.21,4
.12,4
.21H439
.66z"/>
		<path class="st0" d="M473
.3,6
.44h14
.76V0h19
.24v6
.44h14
.76v12
.08H473
.3V6
.44z M487
.08,49
.57c-6
.89,0-12
.88-6
.53-12
.88-14
.23
			c0-7
.79,6-14
.32,12
.88-14
.32h21
.39c6
.89,0,12
.88,6
.53,12
.88,14
.32c0,7
.69-6,14
.23-12
.88,14
.23H487
.08z M493
.97,53
.78h43
.67
			c9
.75,0,17
.09,6
.53,17
.09,15
.84c0,8
.95-7
.34,15
.75-17
.09,15
.75h-43
.67c-9
.66,0-16
.91-6
.8-16
.91-15
.75
			C477
.06,60
.31,484
.31,53
.78,493
.97,53
.78z M492
.09,37
.76h11
.72c1
.43,0,2
.24-1
.25,2
.24-2
.42c0-1
.34-0
.81-2
.51-2
.24-2
.51h-11
.72
			c-1
.43,0-2
.24,1
.16-2
.24,2
.51C489
.85,36
.51,490
.66,37
.76,492
.09,37
.76z M531
.28,72
.3c2
.51,0,3
.76-0
.98,3
.76-2
.77
			c0-1
.79-1
.25-2
.77-3
.76-2
.77h-31
.05c-2
.15,0-3
.4,0
.98-3
.4,2
.77c0,1
.79,1
.25,2
.77,3
.4,2
.77H531
.28z M524
.21,10
.83h9
.93V1
.79h19
.69
			v50
.2h-19
.69v-8
.05h-9
.93V30
.42h9
.93v-6
.08h-9
.93V10
.83z"/>
	</g>
	<g>
		<path class="st0" d="M102
.89,129
.02c0-13
.15,10
.74-20
.04,23
.89-20
.04c13
.15,0,23
.89,6
.89,23
.89,20
.04v3
.94
			c0,13
.15-10
.74,19
.86-23
.89,19
.86c-13
.15,0-23
.89-6
.71-23
.89-19
.86V129
.02z M106
.65,156
.22h73
.19v22
.28h-53
.51v3
.22h55
.3v10
.38
			h-74
.98v-22
.91h53
.51v-3
.04h-53
.51V156
.22z M120
.88,134
.74c0,3
.49,2
.59,5
.64,6
.08,5
.64s6
.17-2
.15,6
.17-5
.64v-7
.6
			c0-3
.49-2
.68-5
.73-6
.17-5
.73s-6
.08,2
.24-6
.08,5
.73V134
.74z M160
.16,108
.98h19
.69v13
.24h9
.31v15
.3h-9
.31v16
.46h-19
.69V108
.98z"/>
		<path class="st0" d="M192
.36,132
.42c0-13
.15,10
.74-22
.1,23
.89-22
.1c13
.24,0,23
.98,8
.95,23
.98,22
.1v36
.24
			c0,13
.15-10
.74,22
.1-23
.98,22
.1c-13
.15,0-23
.89-8
.95-23
.89-22
.1V132
.42z M210
.35,169
.73c0,3
.13,2
.51,5
.91,6
.08,5
.91
			s6
.17-2
.77,6
.17-5
.91v-38
.39c0-2
.95-2
.59-6-6
.17-6s-6
.08,3
.04-6
.08,6V169
.73z M249
.63,108
.98h19
.69v30
.15h9
.31v17
.09h-9
.31v35
.88
			h-19
.69V108
.98z"/>
		<path class="st0" d="M280
.04,174
.65h31
.23v-13
.06h19
.86v13
.06h31
.23v16
.11h-82
.32V174
.65z M283
.18,109
.87h19
.77v9
.93h36
.6v-9
.93
			h19
.68v48
.94h-76
.06V109
.87z M302
.95,144
.05h36
.6v-10
.38h-36
.6V144
.05z"/>
		<path class="st0" d="M370
.86,111
.66h52
.79v13
.42c0,39
.1-22
.19,60
.22-53
.24,65
.23v-17
.09c20
.94-5
.28,34
.63-19
.69,34
.63-45
.45
			h-34
.18V111
.66z M430
.72,108
.98h20
.13v83
.12h-20
.13V108
.98z"/>
	</g>
	<g>
		<path class="st0" d="M1
.47,257
.97v-30
.05h13
.94v1
.67H3
.34v12h11
.73v1
.67H3
.34v14
.71H1
.47z"/>
		<path class="st0" d="M18
.85,231
.39v-3
.48h1
.87v3
.48H18
.85z M18
.85,257
.97v-24
.04h1
.87v24
.04H18
.85z"/>
		<path class="st0" d="M26
.13,257
.97v-24
.04H28v2
.37l7
.35-2
.21c3
.31-0
.97,5
.15,0
.2,5
.15,3
.24v20
.63h-1
.87v-19
.96
			c0-2
.11-1
.14-2
.88-3
.41-2
.17L28,237
.98v19
.99H26
.13z"/>
		<path class="st0" d="M57
.86,227
.91h1
.84v29
.96h-1
.84v-2
.27l-7
.49,2
.07c-3
.28,0
.9-5
.12-0
.23-5
.12-3
.21v-15
.18
			c0-3
.64,1
.87-5
.35,5
.58-5
.35h7
.02V227
.91z M47
.12,253
.82c0,2
.07,1
.17,2
.78,3
.38,2
.17l7
.35-2
.04v-18
.42h-6
.29
			c-3
.28,0-4
.45,1
.14-4
.45,4
.31V253
.82z"/>
		<path class="st0" d="M74
.56,239
.75c0-3
.91,3
.04-6
.15,7
.49-6
.15c4
.41,0,7
.52,2
.24,7
.52,6
.15v12
.67c0,3
.98-3
.11,6
.19-7
.52,6
.19
			c-4
.45,0-7
.49-2
.21-7
.49-6
.19V239
.75z M76
.4,252
.22c0,2
.94,2
.01,4
.78,5
.65,4
.78c3
.61,0,5
.68-1
.84,5
.68-4
.78v-12
.24
			c0-2
.98-2
.07-4
.78-5
.68-4
.78c-3
.64,0-5
.65,1
.8-5
.65,4
.78V252
.22z"/>
		<path class="st0" d="M108
.43,233
.93v23
.94h-1
.87v-2
.41l-7
.36,2
.21c-3
.31,1-5
.15-0
.17-5
.15-3
.21v-20
.53h1
.87v19
.86
			c0,2
.07,1
.14,2
.88,3
.41,2
.17l7
.22-2
.14v-19
.89H108
.43z"/>
		<path class="st0" d="M111
.73,235
.53v-1
.6h4
.35v-6
.02h1
.87v6
.02h5
.28v1
.6h-5
.28v16
.42c0,3
.41,2
.07,4
.48,5
.28,4
.48v1
.6
			c-4
.11,0-7
.15-1
.34-7
.15-5
.75v-16
.75H111
.73z"/>
		<path class="st0" d="M150
.84,257
.97h-1
.87v-2
.37l-7
.52,2
.17c-3
.18,0
.9-5
.15-0
.27-5
.15-3
.24v-4
.51c0-3
.58,1
.91-5
.38,5
.62-5
.38h7
.05
			v-4
.95c0-2
.71-1
.71-4
.51-5
.22-4
.51c-3
.51,0-5
.12,1
.8-5
.12,4
.48v1
.2h-1
.87v-1
.4c0-3
.71,2
.67-5
.88,6
.99-5
.88
			c4
.31,0,7
.09,2
.21,7
.09,5
.92V257
.97z M138
.14,254
.02c0,2
.14,1
.27,2
.71,3
.41,2
.07l7
.42-2
.14v-7
.72h-6
.39
			c-3
.28,0-4
.45,0
.94-4
.45,4
.15V254
.02z"/>
		<path class="st0" d="M170
.36,252
.62c0,3
.64-1
.87,5
.35-5
.58,5
.35h-8
.86v-30
.05h1
.87v8
.49l7
.42-2
.21c3
.24-0
.97,5
.15,0
.17,5
.15,3
.24
			V252
.62z M168
.52,238
.14c0-2
.04-1
.14-2
.91-3
.44-2
.24l-7
.29,2
.14v18
.32h6
.25c3
.31,0,4
.48-1
.14,4
.48-4
.31V238
.14z"/>
		<path class="st0" d="M174
.87,239
.75c0-3
.91,3
.04-6
.15,7
.49-6
.15c4
.41,0,7
.52,2
.24,7
.52,6
.15v12
.67c0,3
.98-3
.11,6
.19-7
.52,6
.19
			c-4
.45,0-7
.49-2
.21-7
.49-6
.19V239
.75z M176
.71,252
.22c0,2
.94,2
.01,4
.78,5
.65,4
.78c3
.61,0,5
.68-1
.84,5
.68-4
.78v-12
.24
			c0-2
.98-2
.07-4
.78-5
.68-4
.78c-3
.64,0-5
.65,1
.8-5
.65,4
.78V252
.22z"/>
		<path class="st0" d="M208
.73,233
.93v23
.94h-1
.87v-2
.41l-7
.36,2
.21c-3
.31,1-5
.15-0
.17-5
.15-3
.21v-20
.53h1
.87v19
.86
			c0,2
.07,1
.14,2
.88,3
.41,2
.17l7
.22-2
.14v-19
.89H208
.73z"/>
		<path class="st0" d="M212
.04,235
.53v-1
.6h4
.35v-6
.02h1
.87v6
.02h5
.28v1
.6h-5
.28v16
.42c0,3
.41,2
.07,4
.48,5
.28,4
.48v1
.6
			c-4
.11,0-7
.15-1
.34-7
.15-5
.75v-16
.75H212
.04z"/>
		<path class="st0" d="M237
.17,257
.97v-24
.04h1
.87v2
.34l5
.02-2
.01c2
.77-1
.1,4
.65-0
.13,4
.98,2
.21l5
.22-2
.21
			c3
.18-1
.34,5
.05,0
.17,5
.05,3
.24v20
.46h-1
.84v-19
.76c0-2
.11-1
.17-3
.08-3
.28-2
.17l-5
.02,2
.11v19
.83h-1
.84v-19
.76
			c0-2
.14-1
.17-3
.04-3
.34-2
.21l-4
.95,1
.97v19
.99H237
.17z"/>
		<path class="st0" d="M264
.38,233
.93h1
.87v16
.48c0,2
.07,1
.24,2
.81,3
.41,2
.17l7
.39-2
.14v-16
.52h1
.87v23
.57
			c0,3
.24-2
.71,5
.58-7
.22,5
.58c-4
.51,0-7
.22-2
.31-7
.22-5
.55v-0
.77h1
.91v0
.6c0,2
.21,1
.67,4
.11,5
.32,4
.11c3
.68,0,5
.35-1
.94,5
.35-4
.15
			v-5
.22l-7
.52,2
.17c-3
.28,0
.9-5
.15-0
.23-5
.15-3
.21V233
.93z"/>
		<path class="st0" d="M304
.49,235
.43c-1
.44,0-2
.77,0
.87-4
.61,2
.01l-3
.64,2
.24v18
.29h-1
.87v-24
.04h1
.87v3
.78l3
.28-2
.01
			c1
.94-1
.2,3
.28-2
.11,4
.98-2
.11V235
.43z"/>
		<path class="st0" d="M319
.73,250
.75h1
.84v1
.57c0,4
.04-3
.11,6
.29-7
.42,6
.29c-4
.38,0-7
.49-2
.24-7
.49-6
.29v-12
.44
			c0-4
.05,3
.08-6
.29,7
.46-6
.29c4
.35,0,7
.46,2
.24,7
.46,6
.29v6
.35H308
.5v5
.92c0,3
.01,2
.11,4
.85,5
.62,4
.85c3
.51,0,5
.62-1
.84,5
.62-4
.85
			V250
.75z M308
.5,244
.63h11
.23v-4
.61c0-2
.98-2
.14-4
.81-5
.62-4
.81c-3
.51,0-5
.62,1
.84-5
.62,4
.81V244
.63z"/>
		<path class="st0" d="M323
.81,235
.74v-1
.61h4
.21v-1
.2c0-3
.64,3
.14-5
.01,6
.32-5
.01h0
.7v1
.6h-0
.57c-2
.44,0-4
.58,0
.87-4
.58,3
.91v0
.7
			h5
.15v1
.61h-5
.15v22
.23h-1
.87v-22
.23H323
.81z"/>
		<path class="st0" d="M337
.05,239
.75c0-3
.91,3
.04-6
.15,7
.49-6
.15c4
.41,0,7
.52,2
.24,7
.52,6
.15v12
.67c0,3
.98-3
.11,6
.19-7
.52,6
.19
			c-4
.45,0-7
.49-2
.21-7
.49-6
.19V239
.75z M338
.88,252
.22c0,2
.94,2
.01,4
.78,5
.65,4
.78c3
.61,0,5
.68-1
.84,5
.68-4
.78v-12
.24
			c0-2
.98-2
.07-4
.78-5
.68-4
.78c-3
.64,0-5
.65,1
.8-5
.65,4
.78V252
.22z"/>
		<path class="st0" d="M367,235
.43c-1
.44,0-2
.77,0
.87-4
.61,2
.01l-3
.64,2
.24v18
.29h-1
.87v-24
.04h1
.87v3
.78l3
.28-2
.01
			c1
.94-1
.2,3
.28-2
.11,4
.98-2
.11V235
.43z"/>
		<path class="st0" d="M370
.27,257
.97v-24
.04h1
.87v2
.34l5
.02-2
.01c2
.77-1
.1,4
.65-0
.13,4
.98,2
.21l5
.22-2
.21
			c3
.18-1
.34,5
.05,0
.17,5
.05,3
.24v20
.46h-1
.84v-19
.76c0-2
.11-1
.17-3
.08-3
.28-2
.17l-5
.02,2
.11v19
.83h-1
.84v-19
.76
			c0-2
.14-1
.17-3
.04-3
.34-2
.21l-4
.95,1
.97v19
.99H370
.27z"/>
		<path class="st0" d="M411
.45,257
.97h-1
.87v-2
.37l-7
.52,2
.17c-3
.18,0
.9-5
.15-0
.27-5
.15-3
.24v-4
.51c0-3
.58,1
.91-5
.38,5
.62-5
.38h7
.05
			v-4
.95c0-2
.71-1
.71-4
.51-5
.22-4
.51s-5
.12,1
.8-5
.12,4
.48v1
.2h-1
.87v-1
.4c0-3
.71,2
.67-5
.88,6
.99-5
.88s7
.09,2
.21,7
.09,5
.92V257
.97z
			 M398
.75,254
.02c0,2
.14,1
.27,2
.71,3
.41,2
.07l7
.42-2
.14v-7
.72h-6
.39c-3
.28,0-4
.45,0
.94-4
.45,4
.15V254
.02z"/>
		<path class="st0" d="M414
.42,235
.53v-1
.6h4
.35v-6
.02h1
.87v6
.02h5
.28v1
.6h-5
.28v16
.42c0,3
.41,2
.07,4
.48,5
.28,4
.48v1
.6
			c-4
.11,0-7
.15-1
.34-7
.15-5
.75v-16
.75H414
.42z"/>
		<path class="st0" d="M429
.53,231
.39v-3
.48h1
.87v3
.48H429
.53z M429
.53,257
.97v-24
.04h1
.87v24
.04H429
.53z"/>
		<path class="st0" d="M436
.22,239
.75c0-3
.91,3
.04-6
.15,7
.49-6
.15c4
.41,0,7
.52,2
.24,7
.52,6
.15v12
.67c0,3
.98-3
.11,6
.19-7
.52,6
.19
			c-4
.45,0-7
.49-2
.21-7
.49-6
.19V239
.75z M438
.05,252
.22c0,2
.94,2
.01,4
.78,5
.65,4
.78c3
.61,0,5
.68-1
.84,5
.68-4
.78v-12
.24
			c0-2
.98-2
.07-4
.78-5
.68-4
.78c-3
.64,0-5
.65,1
.8-5
.65,4
.78V252
.22z"/>
		<path class="st0" d="M456
.04,257
.97v-24
.04h1
.87v2
.37l7
.36-2
.21c3
.31-0
.97,5
.15,0
.2,5
.15,3
.24v20
.63h-1
.87v-19
.96
			c0-2
.11-1
.14-2
.88-3
.41-2
.17l-7
.22,2
.14v19
.99H456
.04z"/>
		<path class="st0" d="M483
.41,235
.53v-1
.6h4
.35v-6
.02h1
.87v6
.02h5
.28v1
.6h-5
.28v16
.42c0,3
.41,2
.07,4
.48,5
.28,4
.48v1
.6
			c-4
.11,0-7
.15-1
.34-7
.15-5
.75v-16
.75H483
.41z"/>
		<path class="st0" d="M498
.52,233
.93h1
.87v16
.48c0,2
.07,1
.24,2
.81,3
.41,2
.17l7
.39-2
.14v-16
.52h1
.87v23
.57
			c0,3
.24-2
.71,5
.58-7
.22,5
.58c-4
.51,0-7
.22-2
.31-7
.22-5
.55v-0
.77h1
.91v0
.6c0,2
.21,1
.67,4
.11,5
.32,4
.11c3
.68,0,5
.35-1
.94,5
.35-4
.15
			v-5
.22l-7
.52,2
.17c-3
.28,0
.9-5
.15-0
.23-5
.15-3
.21V233
.93z"/>
		<path class="st0" d="M520
.34,233
.93v2
.41l7
.42-2
.14c3
.24-0
.94,5
.15,0
.17,5
.15,3
.24v15
.18c0,3
.64-1
.87,5
.35-5
.58,5
.35h-6
.99v5
.15
			h-1
.87v-29
.19H520
.34z M531
.08,238
.14c0-2
.04-1
.14-2
.91-3
.44-2
.27l-7
.29,2
.14v18
.35h6
.25c3
.31,0,4
.48-1
.14,4
.48-4
.31V238
.14z"/>
		<path class="st0" d="M550
.5,250
.75h1
.84v1
.57c0,4
.04-3
.11,6
.29-7
.42,6
.29c-4
.38,0-7
.49-2
.24-7
.49-6
.29v-12
.44
			c0-4
.05,3
.08-6
.29,7
.46-6
.29c4
.35,0,7
.46,2
.24,7
.46,6
.29v6
.35h-13
.07v5
.92c0,3
.01,2
.11,4
.85,5
.62,4
.85s5
.62-1
.84,5
.62-4
.85V250
.75
			z M539
.26,244
.63h11
.23v-4
.61c0-2
.98-2
.14-4
.81-5
.62-4
.81c-3
.51,0-5
.62,1
.84-5
.62,4
.81V244
.63z"/>
	</g>
</g>
</svg>
