<?xml version="1
.0" encoding="utf-8"?>
<!-- Generator: Adobe Illustrator 24
.0
.2, SVG Export Plug-In 
. SVG Version: 6
.00 Build 0)  -->
<svg version="1
.1" id="레이어_1" xmlns="http://www
.w3
.org/2000/svg" xmlns:xlink="http://www
.w3
.org/1999/xlink" x="0px"
	 y="0px" viewBox="0 0 400 195
.5" style="enable-background:new 0 0 400 195
.5;" xml:space="preserve">
<style type="text/css">
	
.st0{clip-path:url(#SVGID_2_);}
	
.st1{opacity:0
.9;clip-path:url(#SVGID_4_);}
	
.st2{clip-path:url(#SVGID_6_);fill:#FFFFFF;}
	
.st3{fill:#525063;}
	
.st4{fill:#1F9699;}
	
.st5{fill:#A7C7CA;}
</style>
<g>
	<g>
		<g>
			<defs>
				<rect id="SVGID_1_" width="400" height="195
.5"/>
			</defs>
			<clipPath id="SVGID_2_">
				<use xlink:href="#SVGID_1_"  style="overflow:visible;"/>
			</clipPath>
			<g class="st0">
				<g>
					<g>
						<defs>
							<rect id="SVGID_3_" width="400" height="195
.5"/>
						</defs>
						<clipPath id="SVGID_4_">
							<use xlink:href="#SVGID_3_"  style="overflow:visible;"/>
						</clipPath>
						<g class="st1">
							<g>
								<g>
									<g>
										<defs>
											<rect id="SVGID_5_" x="-17" y="-13" width="459
.5" height="209
.5"/>
										</defs>
										<clipPath id="SVGID_6_">
											<use xlink:href="#SVGID_5_"  style="overflow:visible;"/>
										</clipPath>
										<path class="st2" d="M14
.2,0C6
.3,0,0,6
.3,0,14
.2v167
.1c0,7
.8,6
.3,14
.2,14
.2,14
.2h371
.6c7
.8,0,14
.2-6
.4,14
.2-14
.2V14
.2
											C400,6
.3,393
.6,0,385
.8,0H14
.2z"/>
									</g>
								</g>
								<g>
									<g>
										<defs>
											<rect id="SVGID_7_" x="-17" y="-13" width="459
.5" height="209
.5"/>
										</defs>
										<clipPath id="SVGID_8_">
											<use xlink:href="#SVGID_7_"  style="overflow:visible;"/>
										</clipPath>
									</g>
								</g>
								<g>
									<g>
										<defs>
											<rect id="SVGID_9_" x="-17" y="-13" width="459
.5" height="209
.5"/>
										</defs>
										<clipPath id="SVGID_10_">
											<use xlink:href="#SVGID_9_"  style="overflow:visible;"/>
										</clipPath>
									</g>
								</g>
								<g>
									<g>
										<defs>
											<rect id="SVGID_11_" x="-17" y="-13" width="459
.5" height="209
.5"/>
										</defs>
										<clipPath id="SVGID_12_">
											<use xlink:href="#SVGID_11_"  style="overflow:visible;"/>
										</clipPath>
									</g>
								</g>
								<g>
									<g>
										<defs>
											<rect id="SVGID_13_" x="-17" y="-13" width="459
.5" height="209
.5"/>
										</defs>
										<clipPath id="SVGID_14_">
											<use xlink:href="#SVGID_13_"  style="overflow:visible;"/>
										</clipPath>
									</g>
								</g>
								<g>
									<g>
										<defs>
											<rect id="SVGID_15_" x="-17" y="-13" width="459
.5" height="209
.5"/>
										</defs>
										<clipPath id="SVGID_16_">
											<use xlink:href="#SVGID_15_"  style="overflow:visible;"/>
										</clipPath>
									</g>
								</g>
								<g>
									<g>
										<defs>
											<rect id="SVGID_17_" x="-17" y="-13" width="459
.5" height="209
.5"/>
										</defs>
										<clipPath id="SVGID_18_">
											<use xlink:href="#SVGID_17_"  style="overflow:visible;"/>
										</clipPath>
									</g>
								</g>
								<g>
									<g>
										<defs>
											<rect id="SVGID_19_" x="-17" y="-13" width="459
.5" height="209
.5"/>
										</defs>
										<clipPath id="SVGID_20_">
											<use xlink:href="#SVGID_19_"  style="overflow:visible;"/>
										</clipPath>
									</g>
								</g>
								<g>
									<g>
										<defs>
											<rect id="SVGID_21_" x="-17" y="-13" width="459
.5" height="209
.5"/>
										</defs>
										<clipPath id="SVGID_22_">
											<use xlink:href="#SVGID_21_"  style="overflow:visible;"/>
										</clipPath>
									</g>
								</g>
								<g>
									<g>
										<defs>
											<rect id="SVGID_23_" x="-17" y="-13" width="459
.5" height="209
.5"/>
										</defs>
										<clipPath id="SVGID_24_">
											<use xlink:href="#SVGID_23_"  style="overflow:visible;"/>
										</clipPath>
									</g>
								</g>
								<g>
									<g>
										<defs>
											<rect id="SVGID_25_" x="-17" y="-13" width="459
.5" height="209
.5"/>
										</defs>
										<clipPath id="SVGID_26_">
											<use xlink:href="#SVGID_25_"  style="overflow:visible;"/>
										</clipPath>
									</g>
								</g>
								<g>
									<g>
										<defs>
											<rect id="SVGID_27_" x="-17" y="-13" width="459
.5" height="209
.5"/>
										</defs>
										<clipPath id="SVGID_28_">
											<use xlink:href="#SVGID_27_"  style="overflow:visible;"/>
										</clipPath>
									</g>
								</g>
								<g>
									<g>
										<defs>
											<rect id="SVGID_29_" x="-17" y="-13" width="459
.5" height="209
.5"/>
										</defs>
										<clipPath id="SVGID_30_">
											<use xlink:href="#SVGID_29_"  style="overflow:visible;"/>
										</clipPath>
									</g>
								</g>
								<g>
									<g>
										<defs>
											<rect id="SVGID_31_" x="-17" y="-13" width="459
.5" height="209
.5"/>
										</defs>
										<clipPath id="SVGID_32_">
											<use xlink:href="#SVGID_31_"  style="overflow:visible;"/>
										</clipPath>
									</g>
								</g>
								<g>
									<g>
										<defs>
											<rect id="SVGID_33_" x="-17" y="-13" width="459
.5" height="209
.5"/>
										</defs>
										<clipPath id="SVGID_34_">
											<use xlink:href="#SVGID_33_"  style="overflow:visible;"/>
										</clipPath>
									</g>
								</g>
								<g>
									<g>
										<defs>
											<rect id="SVGID_35_" x="-17" y="-13" width="459
.5" height="209
.5"/>
										</defs>
										<clipPath id="SVGID_36_">
											<use xlink:href="#SVGID_35_"  style="overflow:visible;"/>
										</clipPath>
									</g>
								</g>
								<g>
									<g>
										<defs>
											<rect id="SVGID_37_" x="-17" y="-13" width="459
.5" height="209
.5"/>
										</defs>
										<clipPath id="SVGID_38_">
											<use xlink:href="#SVGID_37_"  style="overflow:visible;"/>
										</clipPath>
									</g>
								</g>
								<g>
									<g>
										<defs>
											<rect id="SVGID_39_" x="-17" y="-13" width="459
.5" height="209
.5"/>
										</defs>
										<clipPath id="SVGID_40_">
											<use xlink:href="#SVGID_39_"  style="overflow:visible;"/>
										</clipPath>
									</g>
								</g>
								<g>
									<g>
										<defs>
											<rect id="SVGID_41_" x="-17" y="-13" width="459
.5" height="209
.5"/>
										</defs>
										<clipPath id="SVGID_42_">
											<use xlink:href="#SVGID_41_"  style="overflow:visible;"/>
										</clipPath>
									</g>
								</g>
								<g>
									<g>
										<defs>
											<rect id="SVGID_43_" x="-17" y="-13" width="459
.5" height="209
.5"/>
										</defs>
										<clipPath id="SVGID_44_">
											<use xlink:href="#SVGID_43_"  style="overflow:visible;"/>
										</clipPath>
									</g>
								</g>
								<g>
									<g>
										<defs>
											<rect id="SVGID_45_" x="-17" y="-13" width="459
.5" height="209
.5"/>
										</defs>
										<clipPath id="SVGID_46_">
											<use xlink:href="#SVGID_45_"  style="overflow:visible;"/>
										</clipPath>
									</g>
								</g>
								<g>
									<g>
										<defs>
											<rect id="SVGID_47_" x="-17" y="-13" width="459
.5" height="209
.5"/>
										</defs>
										<clipPath id="SVGID_48_">
											<use xlink:href="#SVGID_47_"  style="overflow:visible;"/>
										</clipPath>
									</g>
								</g>
								<g>
									<g>
										<defs>
											<rect id="SVGID_49_" x="-17" y="-13" width="459
.5" height="209
.5"/>
										</defs>
										<clipPath id="SVGID_50_">
											<use xlink:href="#SVGID_49_"  style="overflow:visible;"/>
										</clipPath>
									</g>
								</g>
								<g>
									<g>
										<defs>
											<rect id="SVGID_51_" x="-17" y="-13" width="459
.5" height="209
.5"/>
										</defs>
										<clipPath id="SVGID_52_">
											<use xlink:href="#SVGID_51_"  style="overflow:visible;"/>
										</clipPath>
									</g>
								</g>
								<g>
									<g>
										<defs>
											<rect id="SVGID_53_" x="-17" y="-13" width="459
.5" height="209
.5"/>
										</defs>
										<clipPath id="SVGID_54_">
											<use xlink:href="#SVGID_53_"  style="overflow:visible;"/>
										</clipPath>
									</g>
								</g>
								<g>
									<g>
										<defs>
											<rect id="SVGID_55_" x="-17" y="-13" width="459
.5" height="209
.5"/>
										</defs>
										<clipPath id="SVGID_56_">
											<use xlink:href="#SVGID_55_"  style="overflow:visible;"/>
										</clipPath>
									</g>
								</g>
								<g>
									<g>
										<defs>
											<rect id="SVGID_57_" x="-17" y="-13" width="459
.5" height="209
.5"/>
										</defs>
										<clipPath id="SVGID_58_">
											<use xlink:href="#SVGID_57_"  style="overflow:visible;"/>
										</clipPath>
									</g>
								</g>
								<g>
									<g>
										<defs>
											<rect id="SVGID_59_" x="-17" y="-13" width="459
.5" height="209
.5"/>
										</defs>
										<clipPath id="SVGID_60_">
											<use xlink:href="#SVGID_59_"  style="overflow:visible;"/>
										</clipPath>
									</g>
								</g>
								<g>
									<g>
										<defs>
											<rect id="SVGID_61_" x="-17" y="-13" width="459
.5" height="209
.5"/>
										</defs>
										<clipPath id="SVGID_62_">
											<use xlink:href="#SVGID_61_"  style="overflow:visible;"/>
										</clipPath>
									</g>
								</g>
								<g>
									<g>
										<defs>
											<rect id="SVGID_63_" x="-17" y="-13" width="459
.5" height="209
.5"/>
										</defs>
										<clipPath id="SVGID_64_">
											<use xlink:href="#SVGID_63_"  style="overflow:visible;"/>
										</clipPath>
									</g>
								</g>
								<g>
									<g>
										<defs>
											<rect id="SVGID_65_" x="-17" y="-13" width="459
.5" height="209
.5"/>
										</defs>
										<clipPath id="SVGID_66_">
											<use xlink:href="#SVGID_65_"  style="overflow:visible;"/>
										</clipPath>
									</g>
								</g>
								<g>
									<g>
										<defs>
											<rect id="SVGID_67_" x="-17" y="-13" width="459
.5" height="209
.5"/>
										</defs>
										<clipPath id="SVGID_68_">
											<use xlink:href="#SVGID_67_"  style="overflow:visible;"/>
										</clipPath>
									</g>
								</g>
								<g>
									<g>
										<defs>
											<rect id="SVGID_69_" x="-17" y="-13" width="459
.5" height="209
.5"/>
										</defs>
										<clipPath id="SVGID_70_">
											<use xlink:href="#SVGID_69_"  style="overflow:visible;"/>
										</clipPath>
									</g>
								</g>
								<g>
									<g>
										<defs>
											<rect id="SVGID_71_" x="-17" y="-13" width="459
.5" height="209
.5"/>
										</defs>
										<clipPath id="SVGID_72_">
											<use xlink:href="#SVGID_71_"  style="overflow:visible;"/>
										</clipPath>
									</g>
								</g>
							</g>
						</g>
					</g>
				</g>
			</g>
		</g>
	</g>
</g>
<g>
	<path class="st3" d="M43
.5,146
.6v-1
.3h9
.6v-2
.8h1
.4v2
.8h9
.6v1
.3H43
.5z M44
.7,141
.9c4
.2-0
.1,8
.4-1
.9,8
.4-4
.1v-0
.2h-8v-1
.3h8v-2h1
.4
		v2h8v1
.3h-8v0
.2c0,2
.2,4
.2,3
.9,8
.4,4
.1v1
.3c-4
.3-0
.1-8
.2-1
.7-9
.1-3
.8c-0
.9,2
.1-4
.8,3
.7-9
.1,3
.8V141
.9z M48
.5,148
.8h10
.7
		c2
.4,0,3
.7,1
.6,3
.7,3
.4c0,1
.8-1
.3,3
.4-3
.7,3
.4H48
.5c-2
.4,0-3
.7-1
.6-3
.7-3
.4C44
.8,150
.5,46
.1,148
.8,48
.5,148
.8z M59,154
.3
		c1
.5,0,2
.5-0
.9,2
.5-2
.1c0-1
.2-1-2
.1-2
.5-2
.1H48
.6c-1
.4,0-2
.5,0
.8-2
.5,2
.1c0,1
.2,1,2
.1,2
.5,2
.1H59z"/>
	<path class="st3" d="M91
.1,134
.9h1
.4v11
.3h-1
.4v-5
.4h-6
.9c-1
.7,3
.2-5
.6,4
.5-10
.4,4
.7v-1
.3c6-0
.3,9
.9-2
.3,9
.9-7
.4H74v-1
.3h11
.2v1
		c0,1
.1-0
.2,2
.2-0
.4,3
.1h6
.3V134
.9z M75
.1,155
.6v-8
.2h17
.3v8
.2h-1
.4v-0
.7L75
.1,155
.6z M76
.5,148
.7v5
.5l14
.6-0
.6v-4
.9H76
.5z"/>
	<path class="st3" d="M96
.2,152
.8c2
.4-1
.4,6
.4-5
.2,6
.4-10
.3v-6
.9h1
.4v6
.9c0,5
.1,4,8
.9,6
.4,10
.3v1
.7c-2
.8-1
.4-6
.3-5-7
.1-8
.7
		c-0
.7,3
.7-4
.3,7
.3-7
.1,8
.7V152
.8z M113
.2,155
.6v-20
.7h1
.4v8
.7h3
.3v1
.3h-3
.3v10
.6H113
.2z"/>
	<path class="st3" d="M125
.8,152
.8c2
.5-1
.4,6
.5-5
.2,6
.5-10
.3v-6
.9h1
.4v6
.9c0,5
.1,4,8
.9,6
.5,10
.3v1
.7c-2
.9-1
.4-6
.4-5-7
.2-8
.7
		c-0
.8,3
.7-4
.3,7
.3-7
.2,8
.7V152
.8z M143
.8,155
.6v-20
.7h1
.4v20
.7H143
.8z"/>
	<path class="st3" d="M149
.2,145
.4c6-0
.3,9
.9-2
.9,9
.9-8
.7h-9
.8v-1
.3h11
.2v1c0,7
.1-4
.8,10
.1-11
.3,10
.4V145
.4z M150
.4,155
.6v-7
.1h1
.4
		v5
.8h15
.6v1
.3H150
.4z M165
.5,150
.1v-15
.2h1
.4v6
.2h3
.5v1
.3h-3
.5v7
.7H165
.5z"/>
	<path class="st3" d="M171
.3,147
.2v-1
.3h20
.6v1
.3H171
.3z M176
.5,143c-2
.1,0-3
.8-1
.6-3
.8-3
.9c0-2
.3,1
.7-3
.9,3
.8-3
.9h10
.2
		c2
.1,0,3
.8,1
.6,3
.8,3
.9c0,2
.3-1
.7,3
.9-3
.8,3
.9H176
.5z M172
.9,155
.6v-6
.5h1
.4v5
.1h16
.4v1
.3H172
.9z M186
.5,141
.6c1
.5,0,2
.6-1,2
.6-2
.6
		c0-1
.6-1
.1-2
.5-2
.6-2
.5h-9
.9c-1
.5,0-2
.6,0
.9-2
.6,2
.5c0,1
.6,1
.1,2
.6,2
.6,2
.6H186
.5z"/>
	<path class="st3" d="M210,138
.9c0-2-1
.3-3
.3-3
.7-3
.3c-2
.5,0-3
.7,1
.3-3
.7,3
.3v1
.4h-1
.3v-1
.4c0-2
.8,1
.9-4
.4,5-4
.4c3,0,5,1
.6,5,4
.4
		v1
.2c0,2
.4-1
.4,3
.5-4
.6,6
.4c-3,2
.8-4
.4,3
.9-4
.4,5
.7v2
.1h9
.2v1
.1h-10
.4v-3
.2c0-2
.1,1
.4-3
.5,4
.7-6
.5c3
.2-2
.9,4
.2-3
.7,4
.2-5
.6V138
.9z"
		/>
	<path class="st3" d="M213
.6,147
.1v-1
.3h20
.6v1
.3h-9
.6v4
.6h-1
.4v-4
.6H213
.6z M215
.3,143
.3V135h1
.4v2
.6h14
.6V135h1
.4v8
.3H215
.3z
		 M215
.3,155
.6v-5
.9h1
.4v4
.5H233v1
.3H215
.3z M216
.6,142h14
.6v-3h-14
.6V142z"/>
	<path class="st3" d="M244
.3,154
.6v-18
.8h1
.4V153l8
.1-1v1
.4L244
.3,154
.6z M255
.7,155
.6v-20
.7h1
.4v8
.9h4
.7v-8
.9h1
.4v20
.7h-1
.4v-10
.4
		h-4
.7v10
.4H255
.7z"/>
	<path class="st3" d="M266
.5,154
.9v-1
.3l7
.1-0
.5v-4
.8h1
.4v4
.7l7
.7-0
.5v1
.3L266
.5,154
.9z M267
.9,142
.2v-2c0-3
.3,2
.8-5,6
.2-5
		c3
.4,0,6
.2,1
.7,6
.2,5v2c0,3
.3-2
.8,5-6
.2,5C270
.7,147
.2,267
.9,145
.5,267
.9,142
.2z M278
.9,142
.2v-2c0-2
.3-2
.1-3
.7-4
.8-3
.7
		c-2
.7,0-4
.8,1
.4-4
.8,3
.7v2c0,2
.3,2
.1,3
.7,4
.8,3
.7C276
.8,145
.8,278
.9,144
.5,278
.9,142
.2z M284
.2,155
.6v-20
.7h1
.4v20
.7H284
.2z"/>
	<path class="st3" d="M289
.8,140
.8v-1
.4c0-3,2
.7-4
.6,6-4
.6c3
.3,0,6,1
.6,6,4
.6v1
.4c0,3-2
.7,4
.6-6,4
.6
		C292
.5,145
.4,289
.8,143
.9,289
.8,140
.8z M290
.9,155
.6v-8
.9h1
.4v2
.8h15v-2
.8h1
.4v8
.9h-1
.4v-0
.7L290
.9,155
.6z M300
.4,140
.8v-1
.2
		c0-2
.2-2-3
.3-4
.6-3
.3c-2
.6,0-4
.6,1
.1-4
.6,3
.3v1
.2c0,2
.2,2,3
.3,4
.6,3
.3C298
.4,144
.1,300
.4,142
.9,300
.4,140
.8z M292
.3,154
.2l15-0
.6
		v-2
.7h-15V154
.2z M307
.2,145
.7v-10
.8h1
.4v10
.8H307
.2z"/>
	<path class="st3" d="M313
.5,154
.6v-18
.8h1
.4V153l10
.7-1
.1v1
.4L313
.5,154
.6z M329
.7,155
.6v-20
.7h1
.4v20
.7H329
.7z"/>
	<path class="st3" d="M336,154
.6v-18
.6h10
.8v1
.3h-9
.4v15
.8l10
.5-1
.1v1
.3L336,154
.6z M351
.2,155
.6v-20
.7h1
.4v8
.7h3
.9v1
.3h-3
.9v10
.6
		H351
.2z"/>
</g>
<path class="st4" d="M201
.1,72
.1V52
.6v-2
.8c0-1
.4-2
.2-1
.4-2
.2,0v19
.5v2
.8C198
.9,73
.6,201
.1,73
.6,201
.1,72
.1"/>
<path class="st4" d="M202
.7,73
.2c2
.9-5
.5,5
.8-10
.9,8
.6-16
.4c0
.4-0
.8,0
.8-1
.6,1
.2-2
.3c0
.7-1
.3-1
.3-2
.4-1
.9-1
.1
	c-2
.9,5
.5-5
.8,10
.9-8
.6,16
.4c-0
.4,0
.8-0
.8,1
.6-1
.2,2
.3C200
.1,73
.3,202
.1,74
.4,202
.7,73
.2"/>
<path class="st4" d="M201,74
.2c-0
.1,1
.3-2,1
.3-2,0C199,72
.9,200
.9,72
.9,201,74
.2c0
.1,1
.4,2
.3,1
.4,2
.2,0c-0
.1-1
.8-1
.4-3
.2-3
.2-3
.2
	c-1
.8,0-3
.2,1
.5-3
.2,3
.2c0,1
.7,1
.4,3
.2,3
.1,3
.2c1
.9,0
.1,3
.2-1
.4,3
.3-3
.2C203
.3,72
.8,201,72
.8,201,74
.2"/>
<path class="st4" d="M227
.9,74
.2c-0
.1,11
.6-7
.4,22
.2-18
.3,26
.2c-11
.1,4
.1-23
.7,0
.6-31
.2-8
.5c-7
.5-9-8
.4-22
.2-2
.3-32
.2
	c6-10,18-15
.3,29
.4-12
.9c11
.3,2
.3,20
.2,11
.6,22
.1,23C227
.8,71
.3,227
.9,72
.7,227
.9,74
.2c0,1
.4,2
.2,1
.4,2
.2,0
	c-0
.1-12
.6-8-24-19
.8-28
.3c-11
.8-4
.4-25
.6-0
.6-33
.6,9
.1c-8,9
.8-9
.2,23
.9-2
.6,34
.8c6
.5,10
.8,19
.4,16
.5,31
.8,14
	c12
.2-2
.4,21
.9-12
.6,23
.8-24
.8c0
.2-1
.6,0
.4-3
.1,0
.4-4
.7C230
.1,72
.8,227
.9,72
.8,227
.9,74
.2"/>
<path class="st4" d="M224
.5,74
.2c-0
.1,10
.2-6
.5,19
.6-16
.1,23c-9
.7,3
.5-20
.7,0
.5-27
.3-7
.4c-6
.6-7
.9-7
.4-19
.5-2
.1-28
.3
	c5
.3-8
.7,15
.8-13
.4,25
.8-11
.4c10,2,17
.8,10
.2,19
.4,20
.2C224
.4,71
.7,224
.5,72
.9,224
.5,74
.2c0,1
.4,2
.2,1
.4,2
.2,0
	c-0
.1-11
.2-7
.1-21
.3-17
.6-25
.1c-10
.5-3
.8-22
.7-0
.5-29
.8,8
.1c-7
.1,8
.7-8
.1,21
.2-2
.3,30
.8c5
.8,9
.6,17
.2,14
.6,28
.2,12
.4
	c10
.8-2
.1,19
.4-11
.1,21
.1-21
.9c0
.2-1
.4,0
.3-2
.8,0
.4-4
.3C226
.7,72
.8,224
.5,72
.8,224
.5,74
.2"/>
<path class="st4" d="M201
.1,43
.9v-3
.1c0-1
.4-2
.2-1
.4-2
.2,0v3
.1C198
.9,45
.3,201
.1,45
.3,201
.1,43
.9"/>
<path class="st4" d="M204
.6,39
.7h-4
.8h-3
.2c-0
.3,0-0
.6-0
.1-0
.9,0c-0
.1,0-0
.2,0-0
.2,0c-0
.2,0
.1,0
.4,0
.8,0
.5,0
.4c0
.1-0
.3,0-1,0-1
.3
	c0-0
.3,0
.2-1
.3,0-1
.5c-0
.1-0
.1,0
.4-0
.5-0
.3,0
.2c-0
.1,0
.1-0
.2,0
.2-0
.3,0
.3h0h0
.2c0
.3,0
.1,0
.7,0,1,0h6
.4c0
.4,0,0
.8,0
.1,1
.1,0
	c0,0,0
.3,0,0
.3,0c0
.1-0
.1,1
.4,1
.3-0
.3-0
.3c-0
.7-0
.7-0
.2-0
.3-0
.3-0
.2c-0
.2,0
.2,0,1
.4,0,1
.7c0,0
.3,0,0
.6,0,0
.9c0,0
.1,0,0
.2,0,0
.2
	c0
.2,0
.3-1-0
.1,0
.3-0
.4c-1
.4,0
.3-0
.8,2
.4,0
.6,2
.2c1
.7-0
.3,1
.4-2
.2,1
.4-3
.5c0-1
.3,0-2
.8-1
.7-2
.9c-2
.2-0
.2-4
.4,0-6
.6,0
	c-0
.9,0-1
.7-0
.1-2
.6,0c-1
.6,0
.1-1
.7,1
.5-1
.7,2
.7c0,1
.2-0
.4,3,1,3
.6c0
.7,0
.3,1
.7,0
.1,2
.4,0
.1h7
.4C206,41
.9,206,39
.7,204
.6,39
.7"/>
<path class="st4" d="M214,45c1
.1-1
.4,2
.2-2
.5,3
.9-2
.9c2-0
.5,4,0,5
.7,1
.2c-0
.2-0
.3-0
.4-0
.6-0
.6-1c0,0
.6,0
.4,0
.8,0
.8,1
.2
	c0
.4,0
.4,0
.8,0
.8,1
.1,1
.3c0
.6,0
.9,1,2,1,3
.1c0
.1,2-0
.8,3
.6-1
.9,5
.2c-0
.9,1
.1,1
.1,2
.3,1
.9,1
.1c1
.4-1
.8,2
.3-3
.7,2
.3-6
	c-0
.1-2
.6-1
.3-5-3
.3-6
.6c0
.1,0
.3,0
.2,0
.5,0
.3,0
.8c0-1
.2-2
.1-2-3
.1-2
.3c-1
.3-0
.4-2
.8-0
.5-4
.2-0
.3c-2
.6,0
.5-4
.4,2-5
.9,4
.1
	C211
.2,45,213
.1,46
.2,214,45"/>
<path class="st4" d="M225
.1,42
.9c0
.3-0
.4,0
.6-0
.8,1-1
.3c0
.2-0
.2,0
.2-0
.6,0
.1-0
.9c-0
.1-0
.3-0
.3-0
.5-0
.5-0
.7c-0
.3-0
.1-0
.6-0
.2-0
.9-0
.1
	c-0
.3,0
.1-0
.5,0
.3-0
.7,0
.5c-0
.3,0
.4-0
.6,0
.8-1,1
.3c-0
.2,0
.2-0
.2,0
.6-0
.1,0
.9c0
.1,0
.3,0
.3,0
.5,0
.5,0
.7c0
.3,0
.1,0
.6,0
.2,0
.9,0
.1
	C224
.8,43
.3,224
.9,43
.2,225
.1,42
.9"/>
<path class="st4" d="M187
.9,43
.9c-1
.4-1
.9-3
.1-3
.4-5
.4-4c-2
.6-0
.6-5
.3-0
.1-7
.4,1
.5c-2,1
.5-3
.2,3
.9-3
.4,6
.4c-0
.1,2
.4,0
.8,4
.5,2
.3,6
.3
	c0
.9,1
.1,2
.8,0,1
.9-1
.1c-1
.1-1
.4-1
.9-2
.8-2-4
.6c0-2,0
.9-4,2
.5-5
.2c1
.5-1
.2,3
.6-1
.6,5
.4-1
.2c1
.8,0
.4,3,1
.5,4
.1,2
.9
	C186
.8,46
.2,188
.8,45,187
.9,43
.9"/>
<path class="st4" d="M176
.8,41
.8c-0
.3-0
.4-0
.6-0
.8-1-1
.3c-0
.2-0
.2-0
.4-0
.4-0
.7-0
.5c-0
.3-0
.1-0
.6,0-0
.9,0
.1c-0
.5,0
.3-0
.8,1-0
.4,1
.5
	c0
.3,0
.4,0
.6,0
.8,1,1
.2c0
.2,0
.2,0
.4,0
.4,0
.7,0
.5c0
.3,0
.1,0
.6,0,0
.9-0
.1C176
.8,43,177
.1,42
.3,176
.8,41
.8"/>
<path class="st4" d="M198
.9,49
.8v1
.9c0,0
.6,0
.5,1
.1,1
.1,1
.1s1
.1-0
.5,1
.1-1
.1v-1
.9c0-0
.6-0
.5-1
.1-1
.1-1
.1
	C199
.4,48
.7,198
.9,49
.2,198
.9,49
.8"/>
<path class="st4" d="M186
.9,53
.6c0
.3,0
.5,0
.6,1
.1,0
.9,1
.6c0
.3,0
.5,1,0
.7,1
.5,0
.4c0
.5-0
.3,0
.7-1,0
.4-1
.5c-0
.3-0
.5-0
.6-1
.1-0
.9-1
.6
	c-0
.3-0
.5-1-0
.7-1
.5-0
.4S186
.6,53,186
.9,53
.6"/>
<path class="st4" d="M178
.4,62
.8c0
.5,0
.3,1
.1,0
.6,1
.6,0
.9c0
.5,0
.3,1
.3,0
.1,1
.5-0
.4c0
.3-0
.5,0
.1-1
.2-0
.4-1
.5
	c-0
.5-0
.3-1
.1-0
.6-1
.6-0
.9c-0
.5-0
.3-1
.3-0
.1-1
.5,0
.4C177
.7,61
.9,177
.9,62
.5,178
.4,62
.8"/>
<path class="st4" d="M175
.7,75
.1h1
.9c0
.6,0,1
.1-0
.5,1
.1-1
.1s-0
.5-1
.1-1
.1-1
.1h-1
.9c-0
.6,0-1
.1,0
.5-1
.1,1
.1
	C174
.6,74
.6,175
.1,75
.1,175
.7,75
.1"/>
<path class="st4" d="M179
.6,87
.1c0
.5-0
.3,1
.1-0
.6,1
.6-0
.9c0
.5-0
.3,0
.7-1,0
.4-1
.5s-1-0
.7-1
.5-0
.4s-1
.1,0
.6-1
.6,0
.9
	c-0
.5,0
.3-0
.7,1-0
.4,1
.5S179,87
.4,179
.6,87
.1"/>
<path class="st4" d="M188
.8,95
.6c0
.3-0
.5,0
.6-1
.1,0
.9-1
.6c0
.3-0
.5,0
.1-1
.3-0
.4-1
.5c-0
.5-0
.3-1
.2-0
.1-1
.5,0
.4s-0
.6,1
.1-0
.9,1
.6
	c-0
.3,0
.5-0
.1,1
.3,0
.4,1
.5C187
.8,96
.2,188
.5,96
.1,188
.8,95
.6"/>
<path class="st4" d="M201
.1,98
.2v-1
.9c0-0
.6-0
.5-1
.1-1
.1-1
.1s-1
.1,0
.5-1
.1,1
.1v1
.9c0,0
.6,0
.5,1
.1,1
.1,1
.1
	C200
.6,99
.3,201
.1,98
.8,201
.1,98
.2"/>
<path class="st4" d="M213
.1,94
.4c-0
.3-0
.5-0
.6-1
.1-0
.9-1
.6c-0
.3-0
.5-1-0
.7-1
.5-0
.4s-0
.7,1-0
.4,1
.5c0
.3,0
.5,0
.6,1
.1,0
.9,1
.6
	c0
.3,0
.5,1,0
.7,1
.5,0
.4C213
.2,95
.6,213
.4,95,213
.1,94
.4"/>
<path class="st4" d="M221
.5,85
.2c-0
.5-0
.3-1
.1-0
.6-1
.6-0
.9c-0
.5-0
.3-1
.3-0
.1-1
.5,0
.4c-0
.3,0
.5-0
.1,1
.2,0
.4,1
.5s1
.1,0
.6,1
.6,0
.9
	c0
.5,0
.3,1
.3,0
.1,1
.5-0
.4S222
.1,85
.5,221
.5,85
.2"/>
<path class="st4" d="M224
.2,72
.9h-1
.9c-0
.6,0-1
.1,0
.5-1
.1,1
.1s0
.5,1
.1,1
.1,1
.1h1
.9c0
.6,0,1
.1-0
.5,1
.1-1
.1
	C225
.3,73
.4,224
.8,72
.9,224
.2,72
.9"/>
<path class="st4" d="M220
.4,60
.9c-0
.5,0
.3-1
.1,0
.6-1
.6,0
.9c-0
.5,0
.3-0
.7,1-0
.4,1
.5s1,0
.7,1
.5,0
.4s1
.1-0
.6,1
.6-0
.9
	c0
.5-0
.3,0
.7-1,0
.4-1
.5C221
.6,60
.8,220
.9,60
.6,220
.4,60
.9"/>
<path class="st4" d="M211
.1,52
.5c-0
.3,0
.5-0
.6,1
.1-0
.9,1
.6c-0
.3,0
.5-0
.1,1
.3,0
.4,1
.5c0
.5,0
.3,1
.2,0
.1,1
.5-0
.4s0
.6-1
.1,0
.9-1
.6
	c0
.3-0
.5,0
.1-1
.3-0
.4-1
.5S211
.4,51
.9,211
.1,52
.5"/>
<path class="st4" d="M218
.2,98
.1c0
.6,1
.5,1
.4,3
.1,1
.8,4
.6c0
.4,1
.4-0
.4,3
.2-2,2
.9c-1
.3-0
.2-1
.8-1
.5-2
.3-2
.6c-0
.5-1
.3-2
.7-0
.8-2
.1,0
.6
	c0
.7,1
.7,1
.4,3
.2,3
.2,3
.9c2
.1,0
.8,4
.3-0
.2,5
.2-2
.2c1
.1-2
.6-0
.6-5
.5-1
.6-7
.9C219
.8,96
.2,217
.6,96
.8,218
.2,98
.1"/>
<path class="st4" d="M179
.6,97
.5c-0
.9,2
.4-2
.7,5
.3-1
.6,7
.9c0
.9,2,3,2
.9,5
.1,2
.2c1
.9-0
.7,2
.7-2
.3,3
.4-4c0
.5-1
.3-1
.6-1
.9-2
.2-0
.6
	c-0
.4,1
.1-0
.9,2
.3-2
.1,2
.5c-1
.7,0
.4-2
.5-1
.5-2
.1-2
.9c0
.4-1
.6,1
.2-3
.1,1
.8-4
.6C182
.3,96
.8,180
.1,96
.2,179
.6,97
.5"/>
<path class="st5" d="M201
.1,49
.7C201
.1,49
.7,201
.1,49
.8,201
.1,49
.7v1
.9v0
.9v18
.6c0,0,0
.1,0,0
.1,0
.1c0
.3-0
.5,0
.6-1,0
.8-1
.6
	c2
.7-5
.1,5
.4-10
.2,8-15
.3c0-0
.1,0
.1-0
.2,0
.1-0
.3c0
.2-0
.3,0
.3-0
.5,0
.5-0
.8c0,0,0-0
.1,0
.1-0
.1c0
.1-0
.2,0
.3-0
.5,0
.4-0
.7c0,0,0,0,0,0
	c-2-1-4
.1-1
.8-6
.4-2
.3C203
.6,49
.9,202
.3,49
.8,201
.1,49
.7"/>
<path class="st4" d="M201
.1,49
.7C201
.1,49
.7,201
.1,49
.8,201
.1,49
.7C201
.1,49
.8,201
.1,49
.8,201
.1,49
.7z M201
.1,51
.7
	c0,0
.6-0
.5,1
.1-1
.1,1
.1V71c0
.4,0,0
.8,0
.1,1
.1,0
.2V52
.6V51
.7"/>
<path class="st4" d="M210
.7,53
.2C210
.7,53
.2,210
.7,53
.2,210
.7,53
.2C210
.7,53
.2,210
.7,53
.2,210
.7,53
.2 M210
.1,54
.4
	c-2
.7,5
.1-5
.4,10
.2-8,15
.3c-0
.3,0
.5-0
.6,1-0
.8,1
.6c0
.4,0
.2,0
.8,0
.5,1
.1,0
.8l8
.4-16
.4c-0
.1,0-0
.1,0-0
.2-0
.1
	C210
.1,55
.4,210,54
.8,210
.1,54
.4"/>
<path class="st4" d="M200,71v1
.1l1
.3,0
.5h0
.8l0
.3-0
.5c-0
.3-0
.4-0
.7-0
.6-1
.1-0
.8c0,0-0
.1,0-0
.1,0C200
.8,71
.1,200
.4,71,200,71"/>
<path class="st4" d="M200,48
.6L200,48
.6c0
.6,0
.1,1
.1,0
.6,1
.1,1
.1c1
.2,0,2
.5,0
.2,3
.7,0
.5c2
.3,0
.5,4
.4,1
.2,6
.4,2
.3
	c0
.2-0
.3,0
.6-0
.5,0
.9-0
.5c0
.1,0,0
.2,0,0
.3,0l-2
.7-1
.5l-4
.6-1
.4L200,48
.6z"/>
<path class="st4" d="M200,48
.7v4
.1c0
.6,0,1
.1-0
.5,1
.1-1
.1v-1
.9c0,0,0,0,0,0C201
.1,49
.2,200
.6,48
.7,200,48
.7"/>
<path class="st4" d="M212
.1,51
.9c-0
.4,0-0
.7,0
.2-0
.9,0
.5c0,0,0,0,0,0c-0
.1,0
.2-0
.3,0
.5-0
.4,0
.7c0,0,0,0
.1-0
.1,0
.1
	c-0
.2,0
.3-0
.3,0
.5-0
.5,0
.8c-0
.1,0
.1-0
.1,0
.2-0
.1,0
.3c-0
.1,0
.5,0
.1,1,0
.5,1
.2c0
.1,0,0
.1,0
.1,0
.2,0
.1l1
.9-3
.6l-0
.3-0
.1
	C212
.3,51
.9,212
.2,51
.9,212
.1,51
.9"/>
</svg>
