<?xml version="1
.0" encoding="utf-8"?>
<!-- Generator: Adobe Illustrator 24
.0
.2, SVG Export Plug-In 
. SVG Version: 6
.00 Build 0)  -->
<svg version="1
.1" id="레이어_1" xmlns="http://www
.w3
.org/2000/svg" xmlns:xlink="http://www
.w3
.org/1999/xlink" x="0px"
	 y="0px" viewBox="0 0 442
.37 116
.97" style="enable-background:new 0 0 442
.37 116
.97;" xml:space="preserve">
<style type="text/css">
	
.st0{clip-path:url(#SVGID_2_);fill:url(#SVGID_3_);}
	
.st1{fill:#FFFF00;}
</style>
<g>
	<g>
		<defs>
			<path id="SVGID_1_" d="M14
.17,0C6
.35,0,0,6
.35,0,14
.17v88
.62c0,7
.83,6
.35,14
.17,14
.17,14
.17h414
.02
				c7
.83,0,14
.17-6
.35,14
.17-14
.17V14
.17c0-7
.83-6
.35-14
.17-14
.17-14
.17H14
.17z"/>
		</defs>
		<clipPath id="SVGID_2_">
			<use xlink:href="#SVGID_1_"  style="overflow:visible;"/>
		</clipPath>
		
			<linearGradient id="SVGID_3_" gradientUnits="userSpaceOnUse" x1="-459
.8557" y1="444
.2573" x2="-458
.8557" y2="444
.2573" gradientTransform="matrix(366
.9552 140
.8609 140
.8609 -366
.9552 106128
.4141 227756
.625)">
			<stop  offset="0" style="stop-color:#8AC452"/>
			<stop  offset="0
.3448" style="stop-color:#00AA7D"/>
			<stop  offset="0
.6897" style="stop-color:#008CCD"/>
			<stop  offset="1" style="stop-color:#004EA2"/>
		</linearGradient>
		<polygon class="st0" points="56
.81,-148 481
.5,15
.02 385
.55,264
.97 -39
.13,101
.95 		"/>
	</g>
	<path class="st1" d="M296
.62,58
.86l-16
.5,21
.33l1
.99,1
.39l17
.6-22
.72l-17
.6-22
.62l-1
.99,1
.29L296
.62,58
.86z M234
.48,36
.59v9
.2h8
.1
		v35
.49h10
.94V45
.78h8
.1v-9
.2H234
.48z M214,36
.59h-10
.44l9
.64,21
.77l-10
.14,22
.92h10
.44l4
.92-11
.13l4
.97,11
.13h10
.44l-10
.19-22
.92
		l9
.69-21
.77H222
.9l-4
.47,10
.04L214,36
.59z M174
.53,81
.28h27
.64v-9
.2h-17
.2v-9
.15h16
.21v-8
.7h-16
.21v-8
.45h16
.7v-9
.2h-27
.14V81
.28z
		 M170
.56,36
.59h-9
.94v22
.82l-8-22
.82h-9
.94v44
.69h9
.94V58
.66l8,22
.62h9
.94V36
.59z"/>
</g>
</svg>
