<?xml version="1
.0" encoding="utf-8"?>
<!-- Generator: Adobe Illustrator 24
.0
.2, SVG Export Plug-In 
. SVG Version: 6
.00 Build 0)  -->
<svg version="1
.1" id="레이어_1" xmlns="http://www
.w3
.org/2000/svg" xmlns:xlink="http://www
.w3
.org/1999/xlink" x="0px"
	 y="0px" viewBox="0 0 442
.37 116
.97" style="enable-background:new 0 0 442
.37 116
.97;" xml:space="preserve">
<style type="text/css">
	
.st0{clip-path:url(#SVGID_2_);fill:url(#SVGID_3_);}
	
.st1{fill:#FFFF00;}
	
		
.st2{clip-path:url(#SVGID_5_);fill:none;stroke:#FFFF00;stroke-width:4
.185;stroke-linecap:round;stroke-linejoin:round;stroke-miterlimit:10;}
</style>
<g>
	<defs>
		<path id="SVGID_1_" d="M14
.17,0C6
.35,0,0,6
.35,0,14
.17v88
.62c0,7
.83,6
.35,14
.17,14
.17,14
.17h414
.02c7
.83,0,14
.17-6
.35,14
.17-14
.17
			V14
.17c0-7
.83-6
.35-14
.17-14
.17-14
.17H14
.17z"/>
	</defs>
	<clipPath id="SVGID_2_">
		<use xlink:href="#SVGID_1_"  style="overflow:visible;"/>
	</clipPath>
	
		<linearGradient id="SVGID_3_" gradientUnits="userSpaceOnUse" x1="-459
.8557" y1="444
.2583" x2="-458
.8557" y2="444
.2583" gradientTransform="matrix(366
.9552 140
.8609 140
.8609 -366
.9552 106128
.2734 227757)">
		<stop  offset="0" style="stop-color:#8AC452"/>
		<stop  offset="0
.3448" style="stop-color:#00AA7D"/>
		<stop  offset="0
.6897" style="stop-color:#008CCD"/>
		<stop  offset="1" style="stop-color:#004EA2"/>
	</linearGradient>
	<polygon class="st0" points="56
.81,-148 481
.5,15
.02 385
.55,264
.97 -39
.13,101
.95 	"/>
</g>
<g>
	<path class="st1" d="M108
.99,47
.49v-6
.16h17
.4v6
.16H108
.99z M108
.99,75
.8V50
.37h17v6
.04h-10
.48v12
.36l12
.48-1
.04v6
.4L108
.99,75
.8z
		 M129
.75,77
.08V64
.61h-5
.88v-6
.2h5
.88V40
.05h6
.24v37
.03H129
.75z M138
.11,77
.08V40
.05h6
.4v37
.03H138
.11z"/>
	<path class="st1" d="M148
.07,76
.4v-6
.68h36
.67v6
.68H148
.07z M149
.15,55
.29c8
.24-0
.64,13
.4-6
.6,13
.4-11
.32v-3
.68h7
.72v3
.68
		c0,4
.72,5
.16,10
.68,13
.4,11
.32v6
.44c-8
.28-0
.2-14
.24-4-17
.28-8
.64c-3,4
.64-8
.96,8
.44-17
.24,8
.64V55
.29z"/>
	<path class="st1" d="M188
.07,76
.4v-6
.4h36
.67v6
.4H188
.07z M189
.71,46
.61v-5
.92h33
.35v5
.92H189
.71z M189
.71,63
.77V48
.85h33
.19v5
.76
		h-25
.48v3
.12h26
.04v6
.04H189
.71z"/>
	<path class="st1" d="M241
.15,75
.8V41
.33h21
.44v6
.16h-13
.84v21
.32l15
.64-1
.24v6
.52L241
.15,75
.8z M266
.31,77
.08V40
.05h7
.6v13
.76h5
.32
		v6
.84h-5
.32v16
.44H266
.31z"/>
	<path class="st1" d="M280
.43,67
.25c4
.28-2
.8,8
.6-7
.16,8
.6-18
.48v-7
.88h7
.6v7
.88c0,11
.32,4
.28,15
.68,8
.6,18
.48v8
.52
		c-5
.12-2
.56-9
.84-6
.36-12
.4-11
.92c-2
.6,5
.56-7
.28,9
.36-12
.4,11
.92V67
.25z M308
.23,77
.08V40
.05h7
.76v37
.03H308
.23z"/>
	<path class="st1" d="M320
.51,50
.17v-6
.2h7
.4v-4
.36h7
.6v4
.36h7
.4v6
.2H320
.51z M320
.99,67
.01v-5
.84c0-5
.8,4
.68-9
.36,10
.68-9
.36
		c6
.08,0,10
.76,3
.56,10
.76,9
.36v5
.84c0,5
.8-4
.68,9
.4-10
.76,9
.4C325
.67,76
.4,320
.99,72
.8,320
.99,67
.01z M335
.51,67
.37v-6
.4
		c0-2-1
.76-3
.36-3
.76-3
.36c-2
.04,0-3
.76,1
.36-3
.76,3
.36v6
.4c0,2,1
.72,3
.32,3
.76,3
.32C333
.75,70
.69,335
.51,69
.37,335
.51,67
.37z
		 M347
.19,77
.08V40
.05h7
.6v13
.8h4
.44v6
.84h-4
.44v16
.4H347
.19z"/>
	<path class="st1" d="M360
.59,69
.29c9
.8-2
.4,16
.04-9
.2,16
.04-21
.48h-15
.84v-6
.48h23
.08v5
.44c0,17
.6-9
.56,27
.12-23
.28,29
.43V69
.29z
		 M388
.23,77
.08V40
.05h7
.76v37
.03H388
.23z"/>
</g>
<g>
	<defs>
		<rect id="SVGID_4_" width="442
.37" height="116
.97"/>
	</defs>
	<clipPath id="SVGID_5_">
		<use xlink:href="#SVGID_4_"  style="overflow:visible;"/>
	</clipPath>
	<path class="st2" d="M49
.73,47
.09h8
.14 M49
.73,47
.09v-8
.14 M49
.73,47
.09c3
.55-4
.93,9
.33-8
.14,15
.87-8
.14
		c10
.79,0,19
.53,8
.74,19
.53,19
.53c0,10
.79-8
.74,19
.53-19
.53,19
.53s-19
.53-8
.74-19
.53-19
.53"/>
</g>
</svg>
