<?xml version="1
.0" encoding="utf-8"?>
<!-- Generator: Adobe Illustrator 24
.0
.2, SVG Export Plug-In 
. SVG Version: 6
.00 Build 0)  -->
<svg version="1
.1" id="레이어_1" xmlns="http://www
.w3
.org/2000/svg" xmlns:xlink="http://www
.w3
.org/1999/xlink" x="0px"
	 y="0px" viewBox="0 0 442
.37 116
.97" style="enable-background:new 0 0 442
.37 116
.97;" xml:space="preserve">
<style type="text/css">
	
.st0{clip-path:url(#SVGID_2_);fill:url(#SVGID_3_);}
	
.st1{fill:#FFFF00;}
</style>
<g>
	<defs>
		<path id="SVGID_1_" d="M14
.17,0C6
.35,0,0,6
.35,0,14
.17v88
.62c0,7
.83,6
.35,14
.17,14
.17,14
.17h414
.02c7
.83,0,14
.17-6
.35,14
.17-14
.17
			V14
.17c0-7
.83-6
.35-14
.17-14
.17-14
.17H14
.17z"/>
	</defs>
	<clipPath id="SVGID_2_">
		<use xlink:href="#SVGID_1_"  style="overflow:visible;"/>
	</clipPath>
	
		<linearGradient id="SVGID_3_" gradientUnits="userSpaceOnUse" x1="-459
.8557" y1="444
.2573" x2="-458
.8557" y2="444
.2573" gradientTransform="matrix(366
.9552 140
.8609 140
.8609 -366
.9552 106128
.4141 227756
.625)">
		<stop  offset="0" style="stop-color:#8AC452"/>
		<stop  offset="0
.3448" style="stop-color:#00AA7D"/>
		<stop  offset="0
.6897" style="stop-color:#008CCD"/>
		<stop  offset="1" style="stop-color:#004EA2"/>
	</linearGradient>
	<polygon class="st0" points="56
.81,-148 481
.5,15
.02 385
.55,264
.97 -39
.13,101
.95 	"/>
</g>
<g>
	<path class="st1" d="M77
.78,37
.33h22
.02v8
.45H77
.78V37
.33z M101
.75,78
.54l-23
.96,1
.99V48
.52h21
.53v8
.2H86
.98v14
.22l14
.76-1
.19
		V78
.54z M96
.28,58
.46h6
.71V35
.84h8
.7v46
.18h-8
.7V66
.91h-6
.71V58
.46z M113
.63,35
.84h8
.9v46
.18h-8
.9V35
.84z"/>
	<path class="st1" d="M126
.5,72
.08h45
.74v9
.2H126
.5V72
.08z M127
.74,54
.18c10
.44-0
.8,16
.06-8
.25,16
.06-13
.82v-4
.28h11
.19v4
.28
		c0,5
.57,5
.62,13
.02,16
.06,13
.82v8
.9c-10
.49-0
.25-17
.55-4
.72-21
.68-10
.34c-4
.13,5
.62-11
.19,10
.09-21
.63,10
.34V54
.18z"/>
	<path class="st1" d="M176
.21,72
.53h45
.74v8
.75h-45
.74V72
.53z M177
.95,36
.59h42
.26v8
.05h-42
.26V36
.59z M220
.7,65
.57h-42
.75V46
.73
		h42
.06v7
.8h-30
.97v2
.83h31
.67V65
.57z"/>
	<path class="st1" d="M241
.33,68
.8c5
.32-3
.58,9
.84-8
.5,9
.84-23
.07v-8
.9h10
.99v8
.9c0,14
.57,4
.52,19
.49,9
.84,23
.07v11
.73
		c-6
.36-3
.18-11
.78-7
.41-15
.36-14
.12c-3
.58,6
.71-8
.95,10
.94-15
.31,14
.12V68
.8z M274
.83,35
.84h11
.19v46
.18h-11
.19V35
.84z"/>
	<path class="st1" d="M291
.53,36
.59h28
.63v8
.4h-9
.4c0
.25,5
.82,4
.33,8
.25,9
.89,8
.65v8
.6c-6
.51-0
.15-11
.73-2
.29-14
.81-6
.81
		c-3
.18,4
.52-8
.4,6
.66-14
.81,6
.81v-8
.6c5
.62-0
.4,9
.5-2
.88,9
.84-8
.65h-9
.35V36
.59z M293
.12,64
.72h41
.16v17
.8h-11
.43v-9
.59h-29
.73
		V64
.72z M323
.35,35
.84h10
.94v8
.9h5
.17v8
.75h-5
.17v9
.99h-10
.94V35
.84z"/>
	<path class="st1" d="M341
.24,35
.84h10
.44v19
.39l-0
.5,13
.92h-9
.45l-0
.5-13
.92V35
.84z M341
.74,72
.68h9
.45v9
.35h-9
.45V72
.68z"/>
</g>
</svg>
